# Blender v2.76 (sub 0) OBJ File: ''
# www.blender.org
mtllib bush_tree.mtl
o tree_Circle.001
v 0.075064 -0.015887 0.105293
v 0.048963 0.177149 0.076293
v -0.047512 0.177149 0.076293
v -0.076451 -0.016033 0.105396
v -0.123339 -0.015507 -0.038808
v -0.077325 0.177149 -0.015461
v 0.000726 0.177149 -0.072168
v -0.000651 -0.015042 -0.127824
v 0.121816 -0.015271 -0.038715
v 0.078776 0.177149 -0.015461
v 0.016940 0.465193 -0.115533
v 0.091379 0.464791 -0.104783
v 0.082517 0.396118 -0.076605
v 0.008077 0.396520 -0.087355
v -0.190650 0.470850 0.136183
v -0.226386 0.468503 0.035521
v 0.001497 0.307531 0.065545
v -0.109189 0.475602 0.125436
v -0.110734 0.462645 -0.006523
v -0.034195 0.315954 -0.047622
v -0.136182 0.530081 0.080385
v -0.022601 0.362009 0.029402
v -0.236278 0.546517 0.003569
v -0.280401 0.555901 0.221720
v -0.118034 0.551209 0.139541
v -0.151634 0.553555 0.180630
v 0.325616 0.432508 -0.054389
v 0.295804 0.432508 0.037365
v 0.049030 0.295084 -0.105554
v 0.267483 0.432820 -0.052118
v 0.064427 0.323207 0.013240
v 0.219141 0.446351 -0.033697
v 0.051304 0.314375 0.063538
v 0.239263 0.464329 0.062198
v 0.056903 0.417308 0.035302
v -0.013228 0.511410 0.057363
v -0.048947 0.477036 -0.050954
v -0.035774 0.419523 -0.010776
v 0.031551 1.067680 0.439093
v -0.033327 1.173183 0.349056
v -0.202780 1.155033 0.449052
v -0.199192 1.086856 0.478640
v 0.014648 0.783877 0.529225
v 0.059097 0.926890 0.497869
v -0.193440 0.970132 0.520857
v -0.210910 0.826111 0.561771
v -0.099184 1.236036 0.298458
v -0.202020 1.236384 0.361350
v -0.097517 0.964247 -0.261819
v -0.005790 1.103372 -0.209859
v 0.282258 1.092341 -0.336944
v 0.328013 0.934937 -0.467765
v -0.010595 1.181031 -0.026146
v 0.183061 1.166428 -0.119414
v 0.308801 0.606883 -0.246030
v 0.296413 0.640259 -0.373158
v 0.562981 0.632256 -0.160577
v 0.405437 0.459755 -0.084708
v 0.318545 0.781662 -0.467765
v 0.642234 0.927042 -0.202677
v 0.650411 0.772027 -0.202682
v 0.288092 1.150518 -0.020698
v 0.482103 1.074567 -0.134248
v 0.562981 0.586226 0.180375
v 0.367289 0.453481 0.033000
v 0.587616 0.949226 0.226186
v 0.646925 0.784043 0.222685
v 0.200142 1.143068 0.157793
v 0.400448 1.092199 0.199360
v 0.019446 1.180669 0.247302
v 0.084396 1.107224 0.356908
v 0.247356 0.831123 0.468215
v 0.291561 0.598600 0.391926
v 0.180269 0.984663 0.449155
v 0.257503 0.477190 0.137066
v -0.374143 1.182008 0.083277
v -0.304702 1.232041 0.160033
v -0.190103 1.233911 0.141635
v -0.193816 1.205241 -0.001781
v -0.327797 0.565371 -0.162187
v -0.409706 0.621523 0.026980
v -0.480670 0.791542 -0.062592
v -0.384872 0.677121 -0.266718
v -0.400945 1.100573 0.012066
v -0.187684 1.072988 -0.163717
v -0.646662 0.741673 0.225171
v -0.665007 0.921434 0.231988
v -0.470493 0.954248 -0.059808
v -0.593677 1.071655 0.239189
v -0.498101 0.597977 0.221797
v -0.059015 1.223701 0.237453
v -0.088486 1.210151 0.159032
v 0.041372 1.197016 0.108269
v -0.118158 1.237826 0.192631
v 0.177391 0.461822 -0.004176
v -0.401925 0.958487 0.532827
v -0.430267 0.801067 0.519415
v -0.333056 1.174817 0.417379
v -0.362485 1.084479 0.486382
v -0.234382 0.654288 0.455967
v -0.403946 0.637972 0.416035
v -0.294753 1.238055 0.343787
v -0.472507 1.178740 0.246663
v -0.349169 1.238547 0.252251
v -0.199392 1.261061 0.251886
v 0.131827 0.876278 -0.345579
v -0.046420 0.893461 -0.413071
v 0.142855 0.546501 -0.351313
v 0.198197 0.650024 -0.390708
v 0.043134 0.473475 -0.286278
v -0.019080 0.780594 -0.508567
v 0.198191 0.762867 -0.394681
v -0.025875 0.546517 -0.454702
v -0.012251 0.652170 -0.527238
v -0.272501 0.804533 -0.346400
v -0.273793 0.672637 -0.382203
v -0.050504 0.473475 -0.343415
v -0.236312 0.547761 -0.362387
v -0.239710 0.912232 -0.266426
v -0.167269 0.473475 -0.292814
v -0.219234 0.473475 -0.190451
v -0.081216 0.447407 -0.205082
v -0.167269 0.473475 -0.092721
v 0.050380 0.634291 0.428190
vn 0.000300 0.148800 0.988900
vn -0.571800 0.232000 -0.786900
vn 0.936700 0.172600 0.304600
vn -0.934300 0.186000 0.304100
vn 0.573400 0.223800 -0.788100
vn 0.129500 -0.390700 -0.911400
vn -0.833200 -0.471000 0.289600
vn 0.264800 -0.103100 0.958800
vn -0.409900 -0.019400 -0.911900
vn 0.766400 0.556700 -0.320600
vn 0.844600 0.512200 0.155800
vn -0.853800 -0.520600 -0.003300
vn 0.987200 0.091100 0.130800
vn 0.207700 -0.537300 0.817400
vn 0.716700 -0.657300 0.232900
vn 0.347100 -0.379100 -0.857800
vn -0.530300 0.767500 -0.360300
vn -0.624800 0.780600 -0.018900
vn 0.121600 -0.031900 0.992100
vn 0.009700 0.085600 0.996300
vn 0.258500 0.794700 0.549200
vn -0.278800 0.059400 -0.958500
vn -0.579500 -0.001700 -0.815000
vn 0.532000 -0.425200 -0.732200
vn -0.331700 -0.393300 -0.857500
vn 0.985600 -0.151000 0.075900
vn 0.878500 0.343100 0.332500
vn -0.228100 0.227000 0.946800
vn -0.969700 0.068600 -0.234500
vn -0.785300 -0.315400 -0.532700
vn -0.679800 -0.604100 0.415900
vn 0.261000 0.615200 0.743900
vn 0.149900 0.210900 0.966000
vn 0.316800 0.727100 0.609000
vn -0.333300 0.531600 -0.778600
vn -0.124600 0.916900 -0.379100
vn 0.272200 -0.766100 -0.582300
vn 0.634300 -0.002600 -0.773100
vn 0.280800 0.943000 -0.178700
vn 0.519900 -0.528800 -0.670900
vn 0.509000 0.684600 -0.521800
vn 0.657100 -0.753100 -0.031200
vn 0.977000 0.205300 0.058200
vn 0.319400 0.943600 0.087000
vn 0.891600 -0.452600 -0.016000
vn 0.645100 0.760400 0.075600
vn 0.251900 0.916300 0.311400
vn 0.525400 -0.270800 0.806600
vn 0.377000 0.682600 0.626100
vn 0.255000 -0.876600 0.408200
vn 0.505600 0.241000 0.828400
vn 0.265800 0.570300 0.777300
vn -0.178000 0.943900 -0.278300
vn 0.242000 0.180500 0.953300
vn -0.849400 -0.500800 -0.166600
vn -0.391700 0.695300 -0.602600
vn -0.848800 -0.005400 -0.528700
vn -0.730500 0.477300 -0.488400
vn -0.672000 -0.592400 -0.444400
vn 0.498100 0.827300 0.259800
vn 0.047000 0.989600 -0.135900
vn 0.015200 0.992200 -0.123900
vn 0.333900 0.931000 -0.147200
vn -0.213800 -0.782100 -0.585300
vn 0.172600 0.984700 -0.024900
vn 0.268500 0.947800 0.171800
vn 0.274200 0.949100 0.154800
vn 0.456600 0.872400 0.174600
vn 0.028800 0.983100 -0.180700
vn 0.166700 0.378600 0.910400
vn -0.079200 0.102500 0.991600
vn -0.037400 0.532200 0.845800
vn -0.122000 -0.526500 0.841400
vn 0.037100 0.338300 0.940300
vn -0.072500 0.751300 0.655900
vn -0.402900 0.884200 -0.236300
vn -0.186000 -0.961900 -0.200600
vn -0.625500 0.662800 -0.411600
vn -0.147500 0.979100 -0.140200
vn -0.054800 0.968400 -0.243100
vn -0.393900 -0.918800 0.026000
vn -0.175700 0.399000 -0.900000
vn 0.109600 0.967200 -0.229000
vn 0.255000 0.966500 -0.029400
vn 0.138400 0.965400 0.221000
vn -0.002600 -0.921800 0.387700
vn -0.024000 0.975400 0.219300
vn -0.777400 -0.014700 0.628800
vn -0.596100 0.615400 0.515600
vn -0.147800 0.984600 0.093100
vn -0.648300 -0.552000 0.524400
vn -0.706600 0.369100 0.603700
vn -0.465600 0.809400 0.357800
vn -0.182000 -0.942000 0.282200
vn 0.388600 -0.758400 -0.523200
vn 0.344800 -0.928700 -0.136100
vn 0.375500 0.604500 -0.702600
vn 0.450500 -0.532100 -0.716800
vn -0.750400 0.290500 -0.593800
vn 0.506400 0.066700 -0.859700
vn 0.293000 -0.827500 -0.478900
vn -0.430400 -0.373700 -0.821700
vn -0.241300 0.717600 -0.653300
vn -0.494300 0.168000 -0.852900
vn -0.253200 -0.779600 -0.572900
vn -0.430400 0.568400 -0.701200
vn -0.734100 -0.521700 -0.434600
vn 0.261600 0.930100 -0.257700
vn -0.628300 -0.734900 -0.255100
vn -0.079500 -0.938300 0.336500
vn -0.276800 0.755900 -0.593300
vn -0.194800 -0.975800 -0.098900
vn 0.066200 0.910800 -0.407400
vn -0.483400 0.569400 -0.664900
vn -0.699700 0.308400 -0.644500
vn -0.088100 -0.975100 -0.203300
vn 0.099400 -0.981600 -0.162900
vn 0.194000 -0.980800 -0.017800
vn 0.007100 -0.982300 0.187300
vn -0.040000 -0.979700 0.196700
vn 0.415800 0.794800 0.442000
vn -0.560000 -0.790400 0.248400
vn -0.175200 -0.980100 0.093200
vn -0.532000 0.042200 -0.845700
vn -0.218900 -0.336100 -0.916000
vn 0.407800 -0.876900 -0.254500
vn -0.192300 -0.964400 0.181500
vn 0.194900 -0.379000 0.904600
vn -0.156800 -0.911500 0.380300
vn 0.033600 -0.540000 0.841000
vn -0.322300 -0.942000 0.093000
vn 0.564700 -0.563700 0.602800
vn 0.006800 -0.938400 0.345400
vn -0.030300 -0.955700 0.292800
vn -0.193200 -0.957000 0.216200
vn 0.017400 -0.909900 0.414500
vn 0.318400 -0.945000 0.075000
vn -0.259300 0.529700 -0.807600
vn -0.031600 -0.700600 -0.712800
vn 0.001000 -1.000000 -0.003900
usemtl tree_stem
s 1
f 1//1 2//1 3//1 4//1
f 5//2 6//2 7//2 8//2
f 9//3 10//3 2//3 1//3
f 4//4 3//4 6//4 5//4
f 8//5 7//5 10//5 9//5
f 11//6 12//6 13//6 14//6
f 3//7 15//7 16//7 6//7
f 3//8 17//8 18//8 15//8
f 16//9 19//9 20//9 6//9
f 19//10 21//10 22//10 20//10
f 18//11 17//11 22//11 21//11
f 23//12 16//12 15//12 24//12
f 21//13 25//13 26//13 18//13
f 18//14 26//14 24//14 15//14
f 10//15 27//15 28//15 2//15
f 10//16 29//16 30//16 27//16
f 29//17 31//17 32//17 30//17
f 31//18 33//18 34//18 32//18
f 2//19 28//19 34//19 33//19
f 2//20 33//20 17//20 3//20
f 22//21 17//21 33//21 31//21
f 20//22 14//22 13//22 29//22
f 7//23 6//23 20//23 29//23
f 10//24 7//24 29//24
f 19//25 16//25 23//25
f 31//26 29//26 13//26 35//26
f 36//27 35//27 13//27 12//27
f 22//28 31//28 35//28 37//28 38//28
f 22//29 38//29 14//29 20//29
f 37//30 11//30 14//30 38//30
f 37//31 35//31 36//31
usemtl tree_crown
f 39//32 40//32 41//32 42//32
f 43//33 44//33 45//33 46//33
f 40//34 47//34 48//34 41//34
f 49//35 50//35 51//35 52//35
f 50//36 53//36 54//36 51//36
f 55//37 56//37 57//37 58//37
f 59//38 52//38 60//38 61//38
f 51//39 54//39 62//39 63//39
f 56//40 59//40 61//40 57//40
f 52//41 51//41 63//41 60//41
f 58//42 57//42 64//42 65//42
f 61//43 60//43 66//43 67//43
f 63//44 62//44 68//44 69//44
f 57//45 61//45 67//45 64//45
f 60//46 63//46 69//46 66//46
f 69//47 68//47 70//47 71//47
f 64//48 67//48 72//48 73//48
f 66//49 69//49 71//49 74//49
f 65//50 64//50 73//50 75//50
f 67//51 66//51 74//51 72//51
f 44//52 74//52 71//52 39//52
f 76//53 77//53 78//53 79//53
f 43//54 72//54 74//54 44//54
f 80//55 81//55 82//55 83//55
f 84//56 76//56 79//56 85//56
f 86//57 87//57 88//57 82//57
f 87//58 89//58 84//58 88//58
f 90//59 86//59 82//59 81//59
f 40//60 70//60 91//60 47//60
f 92//61 93//61 53//61
f 53//62 93//62 54//62
f 94//63 47//63 91//63 92//63
f 95//64 55//64 58//64
f 54//65 93//65 62//65
f 62//66 93//66 68//66
f 68//67 93//67 70//67
f 70//68 93//68 91//68
f 91//69 93//69 92//69
f 44//70 39//70 42//70 45//70
f 46//71 45//71 96//71 97//71
f 42//72 41//72 98//72 99//72
f 100//73 46//73 97//73 101//73
f 45//74 42//74 99//74 96//74
f 41//75 48//75 102//75 98//75
f 103//76 104//76 77//76 76//76
f 24//77 90//77 81//77
f 89//78 103//78 76//78 84//78
f 104//79 105//79 77//79
f 77//80 105//80 78//80
f 80//81 23//81 24//81 81//81
f 49//82 52//82 106//82 107//82
f 78//83 105//83 94//83
f 94//84 105//84 47//84
f 47//85 105//85 48//85
f 24//86 100//86 101//86
f 48//87 105//87 102//87
f 97//88 96//88 87//88 86//88
f 99//89 98//89 103//89 89//89
f 102//90 105//90 104//90
f 101//91 97//91 86//91 90//91
f 96//92 99//92 89//92 87//92
f 98//93 102//93 104//93 103//93
f 24//94 101//94 90//94
f 55//95 108//95 109//95 56//95
f 110//96 108//96 12//96 11//96
f 111//97 107//97 106//97 112//97
f 113//98 114//98 109//98 108//98
f 82//99 115//99 116//99 83//99
f 114//100 111//100 112//100 109//100
f 117//101 113//101 108//101 110//101
f 118//102 116//102 114//102 113//102
f 49//103 107//103 119//103 85//103
f 116//104 115//104 111//104 114//104
f 120//105 118//105 113//105 117//105
f 115//106 119//106 107//106 111//106
f 80//107 83//107 116//107 118//107
f 92//108 79//108 78//108 94//108
f 121//109 80//109 118//109 120//109
f 36//110 25//110 21//110 37//110
f 53//111 50//111 49//111 85//111
f 122//112 121//112 120//112
f 53//113 85//113 79//113 92//113
f 85//114 119//114 88//114 84//114
f 82//115 88//115 119//115 115//115
f 122//116 120//116 117//116
f 122//117 117//117 110//117
f 122//118 110//118 11//118
f 122//119 11//119 37//119
f 122//120 37//120 123//120
f 39//121 71//121 70//121 40//121
f 123//122 23//122 80//122 121//122
f 122//123 123//123 121//123
f 59//124 112//124 106//124 52//124
f 56//125 109//125 112//125 59//125
f 95//126 12//126 108//126 55//126
f 36//127 12//127 95//127 75//127
f 73//128 72//128 43//128 124//128
f 36//129 75//129 73//129 124//129
f 100//130 124//130 43//130 46//130
f 23//131 123//131 37//131 19//131
f 21//132 19//132 37//132
f 24//133 26//133 124//133 100//133
f 36//134 124//134 26//134 25//134
f 75//135 95//135 32//135 34//135
f 75//136 34//136 28//136 65//136
f 65//137 28//137 27//137 58//137
f 95//138 58//138 30//138 32//138
f 27//139 30//139 58//139
f 5//140 8//140 9//140 1//140 4//140
