# Blender v2.76 (sub 0) OBJ File: ''
# www.blender.org
mtllib attack_flower.mtl
o Cube.001
v -0.066683 0.866872 -0.078950
v -0.066486 0.785196 -0.162374
v -0.069881 0.790816 -0.093513
v 0.016736 0.912953 -0.188100
v -0.007479 0.748999 -0.215769
v 0.058696 0.880057 -0.213948
v 0.042826 0.772600 -0.232083
v 0.040112 0.911689 0.013536
v -0.017068 0.902627 -0.109404
v 0.085196 0.989456 -0.011549
v 0.025105 0.976482 -0.145183
v 0.057421 1.013798 -0.138050
v 0.000193 0.862357 0.017215
v 0.072459 0.813311 0.074939
v 0.047792 0.895873 0.047931
v 0.132168 0.808230 0.088904
v 0.083000 0.937406 0.051637
v 0.138041 0.927133 0.061108
v 0.032199 0.789031 0.036073
v 0.024509 0.686671 -0.003000
v 0.057935 0.758438 0.061519
v 0.071970 0.624976 -0.002497
v 0.102544 0.739695 0.089575
v 0.117042 0.628506 0.015309
v 0.134920 0.711060 0.081727
v -0.018449 0.742927 -0.023178
v -0.043620 0.741464 -0.121253
v 0.009424 0.686702 -0.035250
v -0.009995 0.693439 -0.180525
v 0.036296 0.630986 -0.054943
v 0.021809 0.664245 -0.189268
v 0.058656 0.617527 -0.088059
v 0.038793 0.970012 -0.153522
v 0.003553 0.905050 -0.117671
v -0.052475 0.870232 -0.083662
v 0.139499 0.923898 0.043943
v 0.082813 0.934888 0.039015
v 0.048237 0.912353 0.006754
v 0.095361 0.982127 -0.014496
v 0.002418 0.864074 0.008486
v 0.113640 1.022504 -0.039856
v 0.103474 1.029833 -0.036909
v 0.055613 0.895353 0.035216
v 0.107911 0.747363 0.080316
v 0.067069 0.760725 0.053483
v 0.078794 0.813476 0.063509
v 0.139499 0.719409 0.071582
v 0.131429 0.806514 0.077690
v 0.042203 0.789570 0.024445
v 0.176117 0.838189 0.081378
v 0.175420 0.836472 0.070411
v 0.020098 0.689974 -0.038749
v 0.034965 0.686150 -0.008775
v 0.067442 0.626041 -0.087191
v 0.045451 0.638804 -0.054399
v 0.080307 0.630830 -0.012271
v -0.004518 0.741571 -0.027896
v 0.122371 0.635464 0.006648
v -0.000363 0.746392 -0.203841
v -0.055849 0.788287 -0.091730
v -0.034371 0.739854 -0.124468
v 0.001967 0.702640 -0.182223
v -0.052292 0.781982 -0.157199
v 0.033123 0.674394 -0.189684
v 0.022665 0.909288 -0.175059
v 0.064625 0.876391 -0.200907
v -0.031537 0.892816 -0.137415
v 0.071109 1.007328 -0.146390
v -0.044518 0.896950 -0.143164
v 0.049643 0.770166 -0.220791
v -0.032399 0.000000 -0.044593
v -0.009033 0.287918 -0.032511
v -0.018553 0.287918 -0.063177
v 0.032399 0.000000 -0.044593
v 0.033397 0.287918 -0.062495
v 0.052422 -0.000000 0.017033
v 0.000000 -0.000000 0.055120
v -0.052422 -0.000000 0.017033
v 0.007670 0.287918 -0.081708
v 0.023074 0.287918 -0.032089
v -0.133045 0.598346 0.003823
v -0.094867 0.579638 -0.002495
v -0.098355 0.592254 0.030559
v -0.117256 0.599606 0.030479
v -0.115610 0.584103 -0.020071
v -0.017977 0.832733 0.006423
v -0.055780 0.803879 -0.047740
v -0.027429 0.782283 -0.011617
v 0.002547 0.799739 0.016705
v -0.056198 0.836330 -0.032353
vn -0.953000 0.064900 0.295900
vn 0.950800 -0.022500 -0.308900
vn -0.573100 0.222100 0.788800
vn -0.570300 -0.153000 -0.807000
vn 0.576600 0.194200 0.793600
vn -0.881700 -0.384300 0.273700
vn 0.550100 0.393400 -0.736600
vn -0.092800 -0.228100 0.969200
vn -0.575700 -0.070100 -0.814700
vn 0.924400 0.378500 -0.046900
vn 0.011000 0.096200 0.995300
vn -0.192900 0.161600 0.967800
vn 0.030700 0.089700 0.995500
vn -0.769900 0.132800 -0.624200
vn -0.857400 0.203800 -0.472500
vn -0.763300 0.128100 -0.633300
vn 0.937000 -0.317400 0.145900
vn 0.772600 -0.398100 -0.494600
vn 0.741800 -0.396900 -0.540500
vn -0.799900 0.337900 0.495900
vn -0.665800 0.347000 0.660500
vn -0.817500 0.335200 0.468400
vn 0.603800 -0.257500 -0.754400
vn 0.671400 -0.257300 -0.695000
vn 0.679600 -0.257100 -0.687100
vn 0.000000 -1.000000 -0.000000
vn -0.566300 -0.331000 0.754900
vn -0.575000 -0.299500 0.761300
vn -0.590000 -0.238500 0.771400
vn -0.694300 0.475800 0.540000
vn -0.704500 0.324700 0.631000
vn -0.684700 0.529300 0.501000
vn -0.846900 -0.361600 0.389900
vn -0.839400 -0.344800 0.420100
vn -0.828600 -0.323300 0.457000
vn -0.520000 -0.017700 0.854000
vn -0.536300 -0.044000 0.842900
vn -0.509400 -0.001000 0.860500
vn -0.968500 -0.046400 0.244700
vn -0.969500 -0.048900 0.240000
vn -0.954200 -0.017100 0.298800
vn -0.947200 0.089800 -0.307800
vn 0.597600 -0.051800 -0.800200
vn -0.012600 0.290800 0.956700
vn 0.000000 -0.064400 -0.997900
vn 0.936300 0.149700 0.317900
vn -0.790600 -0.372700 0.485900
vn 0.640600 0.402700 -0.653800
vn -0.012900 -0.206500 0.978400
vn -0.844800 -0.204900 -0.494300
vn 0.893700 0.330500 0.303400
vn -0.212600 0.167700 0.962600
vn -0.862000 0.208100 -0.462200
vn 0.930000 -0.299900 0.212600
vn -0.651600 0.347100 0.674500
vn 0.591900 -0.257300 -0.763900
vn -0.561100 -0.348600 0.750800
vn -0.693800 0.170700 0.699700
vn -0.851500 -0.372900 0.368700
vn -0.569100 -0.099700 0.816200
vn -0.982600 -0.089600 0.162400
vn -0.971300 0.168700 -0.167500
vn -0.981200 0.136700 -0.136100
vn -0.997200 0.052200 -0.053400
vn -0.577900 0.218100 -0.786400
vn -0.389000 0.208900 -0.897300
vn -0.557300 0.788000 0.261700
vn -0.619400 0.685200 0.383200
vn -0.504200 0.846300 0.172100
vn -0.764800 0.576300 0.288000
vn -0.751500 0.597300 0.280000
vn -0.583800 0.089500 0.806900
vn -0.290000 0.161700 0.943200
vn -0.122800 0.231700 0.965000
vn -0.736200 -0.192300 0.648800
vn -0.692500 -0.211300 0.689800
vn -0.786700 -0.167700 0.594100
vn -0.602300 -0.395800 0.693200
vn -0.293200 -0.557200 0.776900
vn -0.271800 -0.558800 0.783500
vn -0.304500 -0.556200 0.773300
vn -0.839700 -0.495300 0.222900
vn -0.822400 -0.525200 0.218900
vn -0.852600 -0.471200 0.225900
vn -0.882700 -0.459900 0.096700
vn -0.649700 -0.751300 -0.115900
vn -0.680400 -0.725100 -0.106100
vn -0.636400 -0.762000 -0.120000
vn -0.311700 0.431700 -0.846500
vn -0.311600 0.431700 -0.846500
vn -0.335000 -0.248900 -0.908700
vn -0.304800 -0.365700 -0.879400
vn -0.173900 -0.489100 -0.854700
vn -0.165200 -0.496600 -0.852100
vn 0.203000 0.959700 -0.194500
vn 0.323400 0.069000 0.943700
vn -0.580900 0.813900 0.012000
vn 0.464400 0.310600 0.829300
vn 0.464400 0.310700 0.829300
vn -0.667300 0.604500 -0.435200
vn 0.591700 -0.532600 0.605100
vn 0.772500 -0.624000 0.117900
vn 0.572000 -0.520100 0.634300
vn 0.074900 0.933400 0.350800
vn 0.366200 -0.911000 0.189800
vn 0.577200 0.443100 0.685900
vn 0.581400 0.470500 0.663800
vn 0.575600 0.434000 0.693000
vn -0.120300 -0.980100 0.157900
vn 0.422000 0.791600 0.441800
vn 0.344200 0.761700 0.549000
vn 0.439500 0.796600 0.415000
vn 0.570900 -0.816000 0.090900
vn 0.571200 -0.816100 0.087800
vn 0.570800 -0.816000 0.091400
vn 0.350700 -0.157100 0.923200
vn -0.334400 -0.514800 -0.789400
vn -0.405300 -0.563800 -0.719600
vn -0.418100 -0.572300 -0.705400
vn 0.509800 -0.627500 0.588600
vn 0.521900 -0.608800 0.597400
vn 0.505900 -0.633200 0.585700
vn -0.546200 -0.426100 -0.721200
vn 0.322500 -0.044800 0.945500
vn 0.317100 -0.046400 0.947300
vn 0.316400 -0.046600 0.947500
vn 0.290100 -0.840700 -0.457200
vn 0.227200 -0.897400 -0.378200
vn 0.304700 -0.825300 -0.475400
vn 0.294600 -0.881900 -0.368000
vn 0.294300 -0.881900 -0.368300
vn -0.173600 0.492400 -0.852900
vn 0.175400 0.557500 -0.811500
vn -0.212000 0.481000 -0.850700
vn -0.238100 -0.968100 0.078200
vn -0.194300 -0.978300 0.072100
vn -0.185700 -0.980100 0.070800
vn -0.510400 0.540100 -0.669200
vn -0.307300 -0.910300 0.277500
vn -0.148500 0.103700 -0.983500
vn -0.185500 0.083800 -0.979100
vn -0.135400 0.110700 -0.984600
vn 0.598200 0.800000 -0.047100
vn -0.078500 0.949900 0.302600
vn 0.287300 0.925600 -0.246500
vn 0.813400 -0.525200 -0.249900
vn 0.768600 -0.592500 -0.241200
vn 0.647800 -0.630200 -0.428000
vn 0.101900 0.902400 0.418800
vn 0.851900 -0.037600 -0.522400
vn 0.385800 -0.213100 0.897600
vn 0.602300 -0.248200 0.758700
vn 0.997200 -0.046800 0.058700
vn 0.626600 -0.595400 -0.502900
vn 0.682800 0.719500 0.127100
vn 0.695900 0.717700 -0.024600
vn 0.806100 0.532300 -0.258700
vn 0.934800 -0.316000 0.161900
vn 0.290700 0.552100 -0.781500
vn 0.472700 0.435900 -0.765900
vn 0.635800 0.195300 -0.746700
vn 0.924200 0.381700 0.006500
vn 0.030500 -0.278100 -0.960100
vn 0.218400 -0.262900 -0.939800
vn 0.654500 0.192900 -0.731100
vn 0.818500 0.337500 -0.465000
vn 0.788900 0.028000 -0.613900
vn 0.771000 0.011400 -0.636700
vn 0.760000 0.001700 -0.649900
vn 0.749400 -0.007600 -0.662000
vn -0.948700 0.224700 -0.222200
vn -0.614300 0.249400 -0.748600
vn -0.661100 0.571200 0.486500
vn -0.771900 0.550200 0.318500
vn -0.797300 0.535600 0.278100
vn -0.660500 -0.096800 0.744600
vn -0.200300 0.250000 0.947300
vn 0.012000 0.227100 0.973800
vn -0.644000 -0.230100 0.729600
vn -0.540100 -0.409500 0.735300
vn -0.266400 -0.559100 0.785100
vn -0.806800 -0.550300 0.215300
vn -0.771800 -0.631600 0.073900
vn -0.687900 -0.718400 -0.103700
vn -0.563400 -0.143400 -0.813600
vn -0.310400 -0.359900 -0.879900
vn 0.208200 0.964200 -0.164100
vn 0.641700 -0.128100 0.756200
vn -0.382800 0.883000 -0.271600
vn -0.815000 0.570500 -0.101800
vn 0.777900 -0.623800 0.075600
vn -0.057900 0.785100 0.616600
vn 0.333500 -0.910400 0.244800
vn 0.582600 0.478600 0.656900
vn -0.110700 -0.991000 -0.075700
vn 0.320600 0.750400 0.578000
vn 0.571300 -0.816100 0.087200
vn 0.136700 -0.227200 0.964200
vn -0.320600 -0.504900 -0.801400
vn 0.525400 -0.603300 0.600000
vn -0.468600 -0.332400 -0.818500
vn 0.323400 -0.044500 0.945200
vn 0.213800 -0.907600 -0.361300
vn 0.294600 -0.882000 -0.367900
vn 0.203000 0.559600 -0.803500
vn -0.247700 -0.965600 0.079500
vn -0.099700 0.744700 -0.659900
vn -0.495000 -0.862300 0.106800
vn -0.197900 0.077000 -0.977200
vn 0.089500 0.893400 0.440200
vn 0.480400 0.805700 -0.346500
vn 0.754600 -0.604900 -0.254300
vn 0.777700 -0.569200 -0.266800
vn 0.471500 -0.874000 -0.118000
vn -0.083600 0.913200 0.398900
vn 0.904100 -0.048000 -0.424600
vn 0.406400 -0.223200 0.886000
vn 0.563900 -0.220300 0.795900
vn 0.936300 -0.223700 0.270700
vn 0.568500 -0.654100 -0.499000
vn 0.644100 0.752200 0.139200
vn 0.884900 0.460200 -0.071200
vn 0.845800 0.460300 -0.269700
vn 0.891300 -0.385300 0.238900
vn 0.272100 0.553400 -0.787200
vn 0.590700 0.411500 -0.694100
vn 0.812000 0.126200 -0.569900
vn 0.922400 0.368400 -0.116300
vn 0.029500 -0.278100 -0.960100
vn 0.345200 -0.148500 -0.926700
vn 0.512000 -0.147500 -0.846300
usemtl Stem
s 1
f 71//1 72//1 73//1
f 74//2 75//2 76//2
f 77//3 72//3 78//3
f 74//4 73//4 79//4
f 76//5 80//5 77//5
f 72//6 81//6 73//6
f 79//7 82//7 75//7
f 72//8 83//8 84//8
f 73//9 85//9 79//9
f 80//10 82//10 83//10
f 83//11 86//12 84//13
f 81//14 87//15 85//16
f 83//17 88//18 89//19
f 84//20 90//21 81//22
f 82//23 87//24 88//25
f 74//26 76//26 78//26
f 88//27 19//28 89//29
f 90//30 13//31 1//32
f 87//33 26//34 88//35
f 86//36 19//37 13//38
f 87//39 1//40 3//41
f 78//42 72//42 71//42
f 79//43 75//43 74//43
f 80//44 72//44 77//44
f 71//45 73//45 74//45
f 75//46 80//46 76//46
f 84//47 81//47 72//47
f 85//48 82//48 79//48
f 80//49 83//49 72//49
f 81//50 85//50 73//50
f 75//51 82//51 80//51
f 89//52 86//12 83//11
f 90//53 87//15 81//14
f 82//54 88//18 83//17
f 86//55 90//21 84//20
f 85//56 87//24 82//23
f 77//26 78//26 76//26
f 74//26 78//26 71//26
f 26//57 19//28 88//27
f 86//58 13//31 90//30
f 3//59 26//34 87//33
f 89//60 19//37 86//36
f 90//61 1//40 87//39
usemtl petal_blue
f 1//62 2//63 3//64
f 2//65 4//65 5//65
f 5//66 6//66 7//66
f 1//67 8//68 9//69
f 9//70 10//70 11//70
f 10//71 12//71 11//71
f 13//72 14//72 15//72
f 15//73 16//73 17//73
f 16//74 18//74 17//74
f 19//75 20//76 21//77
f 21//78 22//78 23//78
f 23//79 24//80 25//81
f 26//82 27//83 28//84
f 28//85 29//85 30//85
f 30//86 31//87 32//88
f 12//89 33//90 11//90
f 11//91 34//91 9//91
f 9//92 35//93 1//94
f 17//95 36//95 37//95
f 10//96 38//96 39//96
f 15//97 40//97 13//97
f 10//98 41//99 42//99
f 17//100 43//100 15//100
f 8//101 40//102 38//103
f 21//104 44//104 45//104
f 19//105 46//105 14//105
f 23//106 47//107 44//108
f 14//109 48//109 16//109
f 19//110 45//111 49//112
f 50//113 48//114 51//115
f 30//116 52//116 28//116
f 26//117 53//118 20//119
f 30//120 54//121 55//122
f 20//123 56//123 22//123
f 28//124 57//125 26//126
f 24//127 56//128 58//129
f 7//130 59//131 5//131
f 27//132 60//133 61//134
f 2//135 60//136 3//137
f 29//138 61//138 62//138
f 5//139 63//139 2//139
f 31//140 62//141 64//142
f 6//143 65//143 66//143
f 4//144 67//144 65//144
f 12//145 41//145 68//145
f 39//146 68//146 41//146
f 34//147 39//147 38//147
f 35//148 38//148 40//148
f 69//149 35//149 67//149
f 6//150 70//150 7//150
f 59//151 66//151 65//151
f 63//152 65//152 67//152
f 63//153 35//153 60//153
f 31//154 54//154 32//154
f 55//155 64//155 62//155
f 52//156 62//156 61//156
f 57//157 61//157 60//157
f 25//158 58//158 47//158
f 44//159 58//159 56//159
f 45//160 56//160 53//160
f 49//161 53//161 57//161
f 18//162 51//162 36//162
f 48//163 36//163 51//163
f 43//164 48//164 46//164
f 40//165 46//165 49//165
f 40//166 49//166 35//166
f 60//167 35//168 57//169
f 49//170 57//169 35//168
f 69//171 2//63 1//62
f 69//172 4//172 2//172
f 4//66 6//66 5//66
f 13//173 8//68 1//67
f 8//174 10//174 9//174
f 42//175 12//175 10//175
f 19//176 14//176 13//176
f 14//177 16//177 15//177
f 50//178 18//178 16//178
f 26//179 20//76 19//75
f 20//180 22//180 21//180
f 22//181 24//80 23//79
f 3//182 27//83 26//82
f 27//183 29//183 28//183
f 29//184 31//87 30//86
f 68//89 33//90 12//89
f 33//185 34//185 11//185
f 34//186 35//93 9//92
f 18//187 36//187 17//187
f 8//188 38//188 10//188
f 43//189 40//189 15//189
f 39//98 41//99 10//98
f 37//190 43//190 17//190
f 13//191 40//102 8//101
f 23//192 44//192 21//192
f 49//193 46//193 19//193
f 25//194 47//107 23//106
f 46//195 48//195 14//195
f 21//196 45//111 19//110
f 16//197 48//114 50//113
f 55//198 52//198 30//198
f 57//199 53//118 26//117
f 32//200 54//121 30//120
f 53//201 56//201 20//201
f 52//202 57//125 28//124
f 22//203 56//128 24//127
f 70//204 59//131 7//130
f 3//205 60//133 27//132
f 63//206 60//136 2//135
f 27//207 61//207 29//207
f 59//208 63//208 5//208
f 29//209 62//141 31//140
f 4//143 65//143 6//143
f 69//210 67//210 4//210
f 42//211 41//211 12//211
f 33//212 68//212 39//212
f 33//213 39//213 34//213
f 34//214 38//214 35//214
f 1//215 35//215 69//215
f 66//216 70//216 6//216
f 70//217 66//217 59//217
f 59//218 65//218 63//218
f 67//219 35//219 63//219
f 64//220 54//220 31//220
f 54//221 64//221 55//221
f 55//222 62//222 52//222
f 52//223 61//223 57//223
f 24//224 58//224 25//224
f 47//225 58//225 44//225
f 44//226 56//226 45//226
f 45//227 53//227 49//227
f 50//228 51//228 18//228
f 37//229 36//229 48//229
f 37//230 48//230 43//230
f 43//231 46//231 40//231
