# Blender v2.76 (sub 0) OBJ File: ''
# www.blender.org
mtllib attack_flower_tool.mtl
o Cube.003
v -0.016403 0.000000 -0.022577
v -0.004573 0.145769 -0.016460
v -0.009393 0.145769 -0.031986
v 0.016403 0.000000 -0.022577
v 0.016908 0.145769 -0.031640
v 0.026541 -0.000000 0.008624
v 0.000000 -0.000000 0.027907
v -0.026541 -0.000000 0.008624
v 0.003883 0.145769 -0.041368
v 0.011682 0.145769 -0.016246
v -0.067359 0.302935 0.001936
v -0.048030 0.293463 -0.001263
v -0.049796 0.299851 0.015472
v -0.059365 0.303573 0.015431
v -0.058532 0.295724 -0.010162
v -0.009102 0.421602 0.003252
v -0.028241 0.406994 -0.024170
v -0.013887 0.396060 -0.005882
v 0.001290 0.404897 0.008458
v -0.028452 0.423423 -0.016380
v 0.016302 0.399476 0.018263
v 0.000098 0.436600 0.008716
v -0.033761 0.438886 -0.039971
v -0.009340 0.376134 -0.011735
v -0.035380 0.400380 -0.047344
v -0.033661 0.397535 -0.082208
v 0.008473 0.462216 -0.095233
v -0.003787 0.379208 -0.109241
v 0.029717 0.445561 -0.108319
v 0.021682 0.391157 -0.117501
v 0.020308 0.461576 0.006853
v -0.008641 0.456988 -0.055390
v 0.043134 0.500949 -0.005847
v 0.012710 0.494380 -0.073504
v 0.029072 0.513273 -0.069893
v 0.036685 0.411769 0.037941
v 0.024196 0.453569 0.024267
v 0.066915 0.409196 0.045011
v 0.042022 0.474597 0.026143
v 0.069888 0.469395 0.030938
v 0.012409 0.347653 -0.001519
v 0.029332 0.383987 0.031146
v 0.036437 0.316417 -0.001264
v 0.051917 0.374498 0.045351
v 0.059257 0.318204 0.007751
v 0.068308 0.360000 0.041377
v -0.022084 0.375394 -0.061389
v 0.004771 0.347668 -0.017847
v -0.005060 0.351079 -0.091397
v 0.018376 0.319460 -0.027817
v 0.011042 0.336299 -0.095824
v 0.029697 0.312646 -0.044583
v 0.019640 0.491105 -0.077726
v 0.001799 0.458215 -0.059575
v -0.026567 0.440587 -0.042357
v 0.070627 0.467758 0.022248
v 0.041927 0.473322 0.019753
v 0.024422 0.461912 0.003419
v 0.048280 0.497238 -0.007339
v 0.001224 0.437469 0.004296
v 0.057534 0.517681 -0.020179
v 0.052388 0.521391 -0.018687
v 0.028156 0.453306 0.017829
v 0.054634 0.378380 0.040663
v 0.033956 0.385145 0.027078
v 0.039892 0.411852 0.032154
v 0.070627 0.364227 0.036241
v 0.066541 0.408328 0.039333
v 0.021367 0.399749 0.012376
v 0.089166 0.424364 0.041201
v 0.088813 0.423495 0.035648
v 0.010175 0.349325 -0.019618
v 0.017702 0.347389 -0.004443
v 0.034145 0.316956 -0.044144
v 0.023011 0.323418 -0.027541
v 0.040658 0.319381 -0.006213
v -0.002287 0.375448 -0.014123
v 0.061955 0.321727 0.003366
v -0.000184 0.377889 -0.103202
v -0.028276 0.399099 -0.046442
v -0.017402 0.374578 -0.063017
v 0.000996 0.355738 -0.092257
v -0.026475 0.395907 -0.079588
v 0.016770 0.341437 -0.096035
v 0.011475 0.460361 -0.088630
v 0.032719 0.443705 -0.101717
v -0.015967 0.452021 -0.069571
v 0.036002 0.509997 -0.074115
v -0.022539 0.454114 -0.072482
v 0.025134 0.389925 -0.111784
vn -0.953000 0.064900 0.295900
vn 0.950800 -0.022500 -0.308900
vn -0.573100 0.222100 0.788800
vn -0.570300 -0.153000 -0.807000
vn 0.576600 0.194200 0.793600
vn -0.881700 -0.384300 0.273700
vn 0.550100 0.393400 -0.736600
vn -0.092800 -0.228100 0.969200
vn -0.575700 -0.070100 -0.814700
vn 0.924400 0.378500 -0.046900
vn 0.011000 0.096200 0.995300
vn -0.192900 0.161600 0.967800
vn 0.030700 0.089700 0.995500
vn -0.769900 0.132800 -0.624200
vn -0.857400 0.203800 -0.472600
vn -0.763300 0.128100 -0.633300
vn 0.937000 -0.317400 0.145900
vn 0.772600 -0.398100 -0.494600
vn 0.741800 -0.396900 -0.540600
vn -0.799900 0.337900 0.495900
vn -0.665800 0.347000 0.660500
vn -0.817500 0.335200 0.468400
vn 0.603800 -0.257500 -0.754400
vn 0.671400 -0.257300 -0.695000
vn 0.679600 -0.257100 -0.687100
vn 0.000000 -1.000000 -0.000000
vn -0.566300 -0.331000 0.754900
vn -0.575000 -0.299500 0.761300
vn -0.590000 -0.238500 0.771400
vn -0.694300 0.475800 0.540000
vn -0.704500 0.324700 0.631000
vn -0.684700 0.529300 0.501000
vn -0.846900 -0.361600 0.389900
vn -0.839400 -0.344800 0.420100
vn -0.828600 -0.323300 0.457000
vn -0.520000 -0.017700 0.854000
vn -0.536300 -0.044000 0.842900
vn -0.509400 -0.001000 0.860500
vn -0.968500 -0.046400 0.244700
vn -0.969500 -0.048900 0.240000
vn -0.954200 -0.017100 0.298800
vn -0.947200 0.089800 -0.307800
vn 0.597600 -0.051800 -0.800200
vn -0.012600 0.290800 0.956700
vn 0.000000 -0.064400 -0.997900
vn 0.936300 0.149700 0.317900
vn -0.790600 -0.372700 0.485900
vn 0.640600 0.402700 -0.653800
vn -0.012900 -0.206500 0.978400
vn -0.844800 -0.204900 -0.494300
vn 0.893700 0.330500 0.303400
vn -0.212700 0.167700 0.962600
vn -0.862000 0.208100 -0.462200
vn 0.930000 -0.299900 0.212600
vn -0.651600 0.347100 0.674500
vn 0.591900 -0.257300 -0.763900
vn -0.561000 -0.348600 0.750800
vn -0.693800 0.170600 0.699700
vn -0.851500 -0.372900 0.368700
vn -0.569100 -0.099700 0.816200
vn -0.982700 -0.089600 0.162400
vn -0.971300 0.168700 -0.167500
vn -0.981200 0.136700 -0.136100
vn -0.997200 0.052200 -0.053400
vn -0.577900 0.218100 -0.786400
vn -0.389000 0.208900 -0.897300
vn -0.557300 0.788000 0.261700
vn -0.619400 0.685200 0.383200
vn -0.504200 0.846300 0.172100
vn -0.764800 0.576300 0.288000
vn -0.751500 0.597300 0.280000
vn -0.583800 0.089600 0.807000
vn -0.290100 0.161700 0.943200
vn -0.122800 0.231700 0.965000
vn -0.736200 -0.192400 0.648800
vn -0.692500 -0.211300 0.689800
vn -0.786700 -0.167700 0.594100
vn -0.602300 -0.395800 0.693200
vn -0.293200 -0.557200 0.776900
vn -0.271800 -0.558800 0.783500
vn -0.304500 -0.556200 0.773300
vn -0.839700 -0.495300 0.222900
vn -0.822400 -0.525200 0.218900
vn -0.852600 -0.471200 0.225900
vn -0.882700 -0.459900 0.096700
vn -0.649700 -0.751300 -0.115900
vn -0.680400 -0.725100 -0.106200
vn -0.636400 -0.762000 -0.120000
vn -0.311700 0.431700 -0.846500
vn -0.311600 0.431700 -0.846500
vn -0.335100 -0.248900 -0.908700
vn -0.304800 -0.365600 -0.879400
vn -0.173900 -0.489100 -0.854700
vn -0.165200 -0.496600 -0.852100
vn 0.203000 0.959700 -0.194500
vn 0.323400 0.069000 0.943700
vn -0.580900 0.813900 0.012000
vn 0.464400 0.310700 0.829300
vn -0.667300 0.604500 -0.435200
vn 0.591700 -0.532600 0.605100
vn 0.772500 -0.624000 0.117900
vn 0.572000 -0.520100 0.634300
vn 0.074900 0.933400 0.350800
vn 0.366200 -0.911000 0.189800
vn 0.577200 0.443100 0.685900
vn 0.581400 0.470500 0.663700
vn 0.575600 0.433900 0.693100
vn -0.120300 -0.980100 0.157900
vn 0.422000 0.791600 0.441900
vn 0.344200 0.761700 0.549000
vn 0.439500 0.796600 0.415000
vn 0.570900 -0.816000 0.090900
vn 0.571200 -0.816100 0.087800
vn 0.570800 -0.816000 0.091500
vn 0.350800 -0.157100 0.923200
vn -0.334400 -0.514800 -0.789400
vn -0.405300 -0.563800 -0.719600
vn -0.418100 -0.572300 -0.705400
vn 0.509800 -0.627500 0.588600
vn 0.521900 -0.608900 0.597400
vn 0.505900 -0.633200 0.585700
vn -0.546200 -0.426100 -0.721100
vn 0.322300 -0.044900 0.945600
vn 0.317000 -0.046400 0.947300
vn 0.316400 -0.046600 0.947500
vn 0.290100 -0.840700 -0.457300
vn 0.227200 -0.897400 -0.378200
vn 0.304800 -0.825300 -0.475500
vn 0.294500 -0.881900 -0.368000
vn 0.294300 -0.881900 -0.368300
vn -0.173600 0.492400 -0.852900
vn 0.175400 0.557500 -0.811500
vn -0.212000 0.481000 -0.850700
vn -0.238000 -0.968100 0.078200
vn -0.194300 -0.978300 0.072100
vn -0.185600 -0.980100 0.070800
vn -0.510400 0.540100 -0.669200
vn -0.307300 -0.910300 0.277500
vn -0.148500 0.103700 -0.983500
vn -0.185500 0.083800 -0.979100
vn -0.135500 0.110700 -0.984600
vn 0.598200 0.800000 -0.047100
vn -0.078500 0.949900 0.302600
vn 0.287300 0.925600 -0.246500
vn 0.813400 -0.525200 -0.249900
vn 0.768600 -0.592500 -0.241200
vn 0.647800 -0.630200 -0.428000
vn 0.101900 0.902300 0.418800
vn 0.851900 -0.037600 -0.522400
vn 0.385800 -0.213100 0.897600
vn 0.602300 -0.248200 0.758700
vn 0.997200 -0.046800 0.058700
vn 0.626600 -0.595300 -0.502900
vn 0.682700 0.719500 0.127100
vn 0.695900 0.717700 -0.024600
vn 0.806100 0.532300 -0.258600
vn 0.934800 -0.316000 0.161900
vn 0.290700 0.552100 -0.781500
vn 0.472700 0.435900 -0.765900
vn 0.635800 0.195400 -0.746700
vn 0.924200 0.381700 0.006600
vn 0.029700 -0.278100 -0.960100
vn 0.030300 -0.278100 -0.960100
vn 0.030500 -0.278100 -0.960100
vn 0.218400 -0.262900 -0.939800
vn 0.654500 0.192900 -0.731100
vn 0.818500 0.337500 -0.465000
vn 0.788900 0.028000 -0.613900
vn 0.771000 0.011400 -0.636700
vn 0.759900 0.001700 -0.650000
vn 0.749400 -0.007600 -0.662000
vn -0.948700 0.224700 -0.222200
vn -0.614300 0.249400 -0.748600
vn -0.661100 0.571200 0.486500
vn -0.771900 0.550200 0.318500
vn -0.797300 0.535600 0.278100
vn -0.660500 -0.096800 0.744600
vn -0.200300 0.250000 0.947300
vn 0.012000 0.227100 0.973800
vn -0.644000 -0.230100 0.729600
vn -0.540100 -0.409500 0.735300
vn -0.266400 -0.559100 0.785100
vn -0.806800 -0.550300 0.215300
vn -0.771800 -0.631600 0.073900
vn -0.687900 -0.718400 -0.103700
vn -0.563400 -0.143400 -0.813600
vn -0.310500 -0.359800 -0.879800
vn 0.208200 0.964200 -0.164000
vn 0.641700 -0.128100 0.756200
vn -0.382800 0.883000 -0.271600
vn 0.464400 0.310600 0.829300
vn -0.815000 0.570500 -0.101700
vn 0.777900 -0.623800 0.075600
vn -0.057900 0.785100 0.616600
vn 0.333500 -0.910400 0.244700
vn 0.582600 0.478700 0.656900
vn -0.110700 -0.991000 -0.075700
vn 0.320600 0.750400 0.578000
vn 0.571300 -0.816100 0.087200
vn 0.136700 -0.227200 0.964200
vn -0.320600 -0.504900 -0.801500
vn 0.525400 -0.603300 0.599900
vn -0.468600 -0.332400 -0.818500
vn 0.323500 -0.044500 0.945200
vn 0.213800 -0.907600 -0.361300
vn 0.294600 -0.882000 -0.367900
vn 0.203000 0.559600 -0.803500
vn -0.247600 -0.965600 0.079500
vn -0.099800 0.744700 -0.660000
vn -0.495000 -0.862300 0.106900
vn -0.197900 0.077000 -0.977200
vn 0.089500 0.893400 0.440200
vn 0.480400 0.805700 -0.346500
vn 0.754600 -0.604900 -0.254300
vn 0.777700 -0.569200 -0.266800
vn 0.471500 -0.873900 -0.118000
vn -0.083700 0.913200 0.398900
vn 0.904100 -0.048000 -0.424600
vn 0.406400 -0.223200 0.886000
vn 0.563900 -0.220300 0.795900
vn 0.936300 -0.223700 0.270700
vn 0.568400 -0.654200 -0.498900
vn 0.644100 0.752200 0.139200
vn 0.884900 0.460200 -0.071200
vn 0.845800 0.460300 -0.269700
vn 0.891300 -0.385300 0.238900
vn 0.272100 0.553400 -0.787200
vn 0.590700 0.411500 -0.694100
vn 0.812000 0.126200 -0.569900
vn 0.922400 0.368400 -0.116300
vn 0.029600 -0.278100 -0.960100
vn 0.345200 -0.148500 -0.926700
vn 0.512000 -0.147500 -0.846300
usemtl Stem.002
s 1
f 1//1 2//1 3//1
f 4//2 5//2 6//2
f 7//3 2//3 8//3
f 4//4 3//4 9//4
f 6//5 10//5 7//5
f 2//6 11//6 3//6
f 9//7 12//7 5//7
f 2//8 13//8 14//8
f 3//9 15//9 9//9
f 10//10 12//10 13//10
f 13//11 16//12 14//13
f 11//14 17//15 15//16
f 13//17 18//18 19//19
f 14//20 20//21 11//22
f 12//23 17//24 18//25
f 4//26 6//26 8//26
f 18//27 21//28 19//29
f 20//30 22//31 23//32
f 17//33 24//34 18//35
f 16//36 21//37 22//38
f 17//39 23//40 25//41
f 8//42 2//42 1//42
f 9//43 5//43 4//43
f 10//44 2//44 7//44
f 1//45 3//45 4//45
f 5//46 10//46 6//46
f 14//47 11//47 2//47
f 15//48 12//48 9//48
f 10//49 13//49 2//49
f 11//50 15//50 3//50
f 5//51 12//51 10//51
f 19//52 16//12 13//11
f 20//53 17//15 11//14
f 12//54 18//18 13//17
f 16//55 20//21 14//20
f 15//56 17//24 12//23
f 7//26 8//26 6//26
f 4//26 8//26 1//26
f 24//57 21//28 18//27
f 16//58 22//31 20//30
f 25//59 24//34 17//33
f 19//60 21//37 16//36
f 20//61 23//40 17//39
usemtl petal_blue
f 23//62 26//63 25//64
f 26//65 27//65 28//65
f 28//66 29//66 30//66
f 23//67 31//68 32//69
f 32//70 33//70 34//70
f 33//71 35//71 34//71
f 22//72 36//72 37//72
f 37//73 38//73 39//73
f 38//74 40//74 39//74
f 21//75 41//76 42//77
f 42//78 43//78 44//78
f 44//79 45//80 46//81
f 24//82 47//83 48//84
f 48//85 49//85 50//85
f 50//86 51//87 52//88
f 35//89 53//90 34//90
f 34//91 54//91 32//91
f 32//92 55//93 23//94
f 39//95 56//95 57//95
f 33//96 58//96 59//96
f 37//97 60//97 22//97
f 33//98 61//98 62//98
f 39//99 63//99 37//99
f 31//100 60//101 58//102
f 42//103 64//103 65//103
f 21//104 66//104 36//104
f 44//105 67//106 64//107
f 36//108 68//108 38//108
f 21//109 65//110 69//111
f 70//112 68//113 71//114
f 50//115 72//115 48//115
f 24//116 73//117 41//118
f 50//119 74//120 75//121
f 41//122 76//122 43//122
f 48//123 77//124 24//125
f 45//126 76//127 78//128
f 30//129 79//130 28//130
f 47//131 80//132 81//133
f 26//134 80//135 25//136
f 49//137 81//137 82//137
f 28//138 83//138 26//138
f 51//139 82//140 84//141
f 29//142 85//142 86//142
f 27//143 87//143 85//143
f 35//144 61//144 88//144
f 59//145 88//145 61//145
f 54//146 59//146 58//146
f 55//147 58//147 60//147
f 89//148 55//148 87//148
f 29//149 90//149 30//149
f 79//150 86//150 85//150
f 83//151 85//151 87//151
f 83//152 55//152 80//152
f 51//153 74//153 52//153
f 75//154 84//154 82//154
f 72//155 82//155 81//155
f 77//156 81//156 80//156
f 46//157 78//157 67//157
f 64//158 78//158 76//158
f 65//159 76//159 73//159
f 69//160 73//160 77//160
f 40//161 71//161 56//161
f 68//162 56//163 71//164
f 63//165 68//165 66//165
f 60//166 66//166 69//166
f 60//167 69//167 55//167
f 80//168 55//169 77//170
f 69//171 77//170 55//169
f 89//172 26//63 23//62
f 89//173 27//173 26//173
f 27//66 29//66 28//66
f 22//174 31//68 23//67
f 31//175 33//175 32//175
f 62//176 35//176 33//176
f 21//177 36//177 22//177
f 36//178 38//178 37//178
f 70//179 40//179 38//179
f 24//180 41//76 21//75
f 41//181 43//181 42//181
f 43//182 45//80 44//79
f 25//183 47//83 24//82
f 47//184 49//184 48//184
f 49//185 51//87 50//86
f 88//89 53//90 35//89
f 53//186 54//186 34//186
f 54//187 55//93 32//92
f 40//188 56//188 39//188
f 31//189 58//189 33//189
f 63//190 60//190 37//190
f 59//191 61//98 33//98
f 57//192 63//192 39//192
f 22//193 60//101 31//100
f 44//194 64//194 42//194
f 69//195 66//195 21//195
f 46//196 67//106 44//105
f 66//197 68//197 36//197
f 42//198 65//110 21//109
f 38//199 68//113 70//112
f 75//200 72//200 50//200
f 77//201 73//117 24//116
f 52//202 74//120 50//119
f 73//203 76//203 41//203
f 72//204 77//124 48//123
f 43//205 76//127 45//126
f 90//206 79//130 30//129
f 25//207 80//132 47//131
f 83//208 80//135 26//134
f 47//209 81//209 49//209
f 79//210 83//210 28//210
f 49//211 82//140 51//139
f 27//142 85//142 29//142
f 89//212 87//212 27//212
f 62//213 61//213 35//213
f 53//214 88//214 59//214
f 53//215 59//215 54//215
f 54//216 58//216 55//216
f 23//217 55//217 89//217
f 86//218 90//218 29//218
f 90//219 86//219 79//219
f 79//220 85//220 83//220
f 87//221 55//221 83//221
f 84//222 74//222 51//222
f 74//223 84//223 75//223
f 75//224 82//224 72//224
f 72//225 81//225 77//225
f 45//226 78//226 46//226
f 67//227 78//227 64//227
f 64//228 76//228 65//228
f 65//229 73//229 69//229
f 70//230 71//230 40//230
f 57//231 56//163 68//162
f 57//232 68//232 63//232
f 63//233 66//233 60//233
o energy_remain_Icosphere.002
v -0.161532 -0.037030 0.206562
v -0.119742 0.042262 0.328579
v -0.264355 0.042903 0.283761
v -0.032430 0.042038 0.204889
v -0.266421 0.043075 0.132376
v -0.123084 0.042541 0.083631
v -0.055463 0.170845 0.281059
v -0.198800 0.171379 0.329804
v -0.289455 0.171882 0.208545
v -0.202142 0.171658 0.084855
v -0.057529 0.171017 0.129674
v -0.160352 0.250950 0.206873
vn -0.183000 -0.794500 0.579000
vn 0.492700 -0.797100 0.349200
vn -0.610200 -0.792200 0.007400
vn -0.198700 -0.793200 -0.575600
vn 0.482900 -0.796300 -0.364400
vn 0.801700 -0.191500 0.566200
vn -0.291500 -0.187400 0.938000
vn -0.982900 -0.183600 0.013200
vn -0.317000 -0.185300 -0.930100
vn 0.785900 -0.190200 -0.588400
vn 0.317000 0.185300 0.930100
vn -0.785900 0.190200 0.588400
vn -0.801700 0.191500 -0.566200
vn 0.291500 0.187400 -0.938000
vn 0.982900 0.183600 -0.013200
vn 0.198700 0.793200 0.575600
vn -0.482900 0.796300 0.364400
vn -0.492700 0.797100 -0.349200
vn 0.183000 0.794500 -0.579000
vn 0.610200 0.792200 -0.007400
usemtl Material.001
s 1
f 91//234 92//234 93//234
f 92//235 91//235 94//235
f 91//236 93//236 95//236
f 91//237 95//237 96//237
f 91//238 96//238 94//238
f 92//239 94//239 97//239
f 93//240 92//240 98//240
f 95//241 93//241 99//241
f 96//242 95//242 100//242
f 94//243 96//243 101//243
f 92//244 97//244 98//244
f 93//245 98//245 99//245
f 95//246 99//246 100//246
f 96//247 100//247 101//247
f 94//248 101//248 97//248
f 98//249 97//249 102//249
f 99//250 98//250 102//250
f 100//251 99//251 102//251
f 101//252 100//252 102//252
f 97//253 101//253 102//253
o energy_remain_Icosphere.001
v 0.238210 -0.018234 0.008997
v 0.361020 0.061615 0.047257
v 0.239687 0.061301 0.137813
v 0.312387 0.061576 -0.096122
v 0.116068 0.061068 0.050404
v 0.161000 0.061238 -0.094174
v 0.359711 0.190445 -0.032272
v 0.314779 0.190275 0.112307
v 0.163392 0.189937 0.114255
v 0.114759 0.189897 -0.029124
v 0.236092 0.190211 -0.119680
v 0.237569 0.269747 0.009136
vn 0.364900 -0.794100 0.486100
vn 0.576700 -0.793300 -0.195400
vn -0.348700 -0.795700 0.495300
vn -0.577900 -0.795900 -0.180500
vn -0.006000 -0.794400 -0.607400
vn 0.930600 -0.185400 -0.315600
vn 0.587900 -0.186600 0.787100
vn -0.566700 -0.189200 0.801900
vn -0.937600 -0.189500 -0.291600
vn -0.012200 -0.187100 -0.982300
vn 0.937600 0.189500 0.291600
vn 0.012200 0.187100 0.982300
vn -0.930600 0.185400 0.315600
vn -0.587900 0.186700 -0.787100
vn 0.566700 0.189200 -0.801900
vn 0.577900 0.795900 0.180500
vn 0.006000 0.794400 0.607400
vn -0.576700 0.793300 0.195400
vn -0.364900 0.794100 -0.486100
vn 0.348700 0.795700 -0.495300
usemtl Material.001
s 1
f 103//254 104//254 105//254
f 104//255 103//255 106//255
f 103//256 105//256 107//256
f 103//257 107//257 108//257
f 103//258 108//258 106//258
f 104//259 106//259 109//259
f 105//260 104//260 110//260
f 107//261 105//261 111//261
f 108//262 107//262 112//262
f 106//263 108//263 113//263
f 104//264 109//264 110//264
f 105//265 110//265 111//265
f 107//266 111//266 112//266
f 108//267 112//267 113//267
f 106//268 113//268 109//268
f 110//269 109//269 114//269
f 111//270 110//270 114//270
f 112//271 111//271 114//271
f 113//272 112//272 114//272
f 109//273 113//273 114//273
o energy_remain_Icosphere
v -0.136478 -0.023675 -0.217114
v -0.008637 0.056348 -0.203884
v -0.109662 0.055872 -0.091119
v -0.084668 0.056231 -0.334811
v -0.248126 0.055460 -0.152349
v -0.232679 0.055682 -0.302959
v -0.025828 0.185170 -0.281556
v -0.041275 0.184948 -0.130946
v -0.189286 0.184399 -0.099094
v -0.265317 0.184282 -0.230022
v -0.164292 0.184758 -0.342787
v -0.137476 0.264305 -0.216792
vn 0.454900 -0.793500 0.404200
vn 0.527700 -0.792500 -0.305700
vn -0.242800 -0.796100 0.554300
vn -0.601100 -0.796700 -0.062800
vn -0.125000 -0.794400 -0.594400
vn 0.850100 -0.184100 -0.493500
vn 0.732200 -0.185800 0.655200
vn -0.396600 -0.190000 0.898100
vn -0.976500 -0.190900 -0.100400
vn -0.206000 -0.187200 -0.960500
vn 0.976500 0.190900 0.100400
vn 0.206000 0.187200 0.960500
vn -0.850100 0.184100 0.493500
vn -0.732200 0.185800 -0.655200
vn 0.396600 0.190000 -0.898100
vn 0.601100 0.796700 0.062800
vn 0.125000 0.794400 0.594400
vn -0.527700 0.792500 0.305700
vn -0.454900 0.793500 -0.404200
vn 0.242800 0.796100 -0.554300
usemtl Material.001
s 1
f 115//274 116//274 117//274
f 116//275 115//275 118//275
f 115//276 117//276 119//276
f 115//277 119//277 120//277
f 115//278 120//278 118//278
f 116//279 118//279 121//279
f 117//280 116//280 122//280
f 119//281 117//281 123//281
f 120//282 119//282 124//282
f 118//283 120//283 125//283
f 116//284 121//284 122//284
f 117//285 122//285 123//285
f 119//286 123//286 124//286
f 120//287 124//287 125//287
f 118//288 125//288 121//288
f 122//289 121//289 126//289
f 123//290 122//290 126//290
f 124//291 123//291 126//291
f 125//292 124//292 126//292
f 121//293 125//293 126//293
