# Blender v2.76 (sub 0) OBJ File: ''
# www.blender.org
mtllib bridge1.mtl
o Cylinder_Mesh.001
v 2.047156 0.694397 -0.954174
v 2.117326 0.694397 -0.954174
v 2.117326 0.694397 -0.885631
v 2.047156 0.694397 -0.885631
v 2.117326 0.049607 -0.954174
v 2.047156 0.049607 -0.954174
v 2.117326 0.049607 -0.885631
v 2.047156 0.049607 -0.885631
v 1.662709 0.929635 -0.945393
v 1.732879 0.929635 -0.945393
v 1.732879 0.929635 -0.876850
v 1.662709 0.929635 -0.876850
v 1.732879 0.284845 -0.945393
v 1.662709 0.284845 -0.945393
v 1.732879 0.284845 -0.876850
v 1.662709 0.284845 -0.876850
v 1.077675 1.109678 -0.945393
v 1.147845 1.109678 -0.945393
v 1.147845 1.109678 -0.876850
v 1.077675 1.109678 -0.876850
v 1.147845 0.464889 -0.945393
v 1.077675 0.464889 -0.945393
v 1.147845 0.464889 -0.876850
v 1.077675 0.464889 -0.876850
v 0.328575 1.207117 -0.945393
v 0.398745 1.207117 -0.945393
v 0.398745 1.207117 -0.876850
v 0.328575 1.207117 -0.876850
v 0.398745 0.562327 -0.945393
v 0.328575 0.562327 -0.945393
v 0.398745 0.562327 -0.876850
v 0.328575 0.562327 -0.876850
v -0.398745 1.207117 -0.945393
v -0.328575 1.207117 -0.945393
v -0.328575 1.207117 -0.876850
v -0.398745 1.207117 -0.876850
v -0.328575 0.562327 -0.945393
v -0.398745 0.562327 -0.945393
v -0.328575 0.562327 -0.876850
v -0.398745 0.562327 -0.876850
v -1.147845 1.109678 -0.945393
v -1.077675 1.109678 -0.945393
v -1.077675 1.109678 -0.876850
v -1.147845 1.109678 -0.876850
v -1.077675 0.464889 -0.945393
v -1.147845 0.464889 -0.945393
v -1.077675 0.464889 -0.876850
v -1.147845 0.464889 -0.876850
v -1.732879 0.929635 -0.945393
v -1.662709 0.929635 -0.945393
v -1.662709 0.929635 -0.876850
v -1.732879 0.929635 -0.876850
v -1.662709 0.284845 -0.945393
v -1.732879 0.284845 -0.945393
v -1.662709 0.284845 -0.876850
v -1.732879 0.284845 -0.876850
v -2.125232 0.694397 -0.945393
v -2.055062 0.694397 -0.945393
v -2.055062 0.694397 -0.876850
v -2.125232 0.694397 -0.876850
v -2.055062 0.049607 -0.945393
v -2.125232 0.049607 -0.945393
v -2.055062 0.049607 -0.876850
v -2.125232 0.049607 -0.876850
v 0.000000 0.652252 -1.000000
v 0.000000 0.652253 1.000000
v 0.799123 0.601605 -1.000000
v 0.799123 0.601606 1.000000
v 1.476586 0.457375 -1.000000
v 1.476586 0.457375 1.000000
v 1.929253 0.241519 -1.000000
v 1.929253 0.241519 1.000000
v 2.235230 -0.013101 -1.000000
v 2.235230 -0.013101 1.000000
v -2.235230 -0.013101 -1.000000
v -2.235230 -0.013101 1.000000
v -1.929252 0.241519 -1.000000
v -1.929252 0.241519 1.000000
v -1.476586 0.457375 -1.000000
v -1.476586 0.457375 1.000000
v -0.799122 0.601605 -1.000000
v -0.799122 0.601606 1.000000
v -0.000000 0.499305 -1.000000
v -0.000000 0.499305 1.000000
v 0.799123 0.448658 -1.000000
v 0.799123 0.448658 1.000000
v 1.476586 0.304427 -1.000000
v 1.476586 0.304428 1.000000
v 1.929253 0.088571 -1.000000
v 1.929253 0.088572 1.000000
v 2.235230 -0.166049 -1.000000
v 2.235230 -0.166048 1.000000
v -2.235230 -0.166049 -1.000000
v -2.235230 -0.166048 1.000000
v -1.929252 0.088571 -1.000000
v -1.929252 0.088572 1.000000
v -1.476586 0.304427 -1.000000
v -1.476586 0.304428 1.000000
v -0.799122 0.448658 -1.000000
v -0.799122 0.448658 1.000000
v 0.000000 1.293418 -1.000000
v 0.000000 1.293418 -0.876850
v 0.799123 1.242771 -1.000000
v 0.799123 1.242771 -0.876850
v 1.476586 1.098541 -1.000000
v 1.476586 1.098541 -0.876850
v 1.929253 0.882685 -1.000000
v 1.929253 0.882685 -0.876850
v 2.235230 0.628065 -1.000000
v 2.235230 0.628065 -0.876850
v -2.235230 0.628065 -1.000000
v -2.235230 0.628065 -0.876850
v -1.929252 0.882685 -1.000000
v -1.929252 0.882685 -0.876850
v -1.476586 1.098541 -1.000000
v -1.476586 1.098541 -0.876850
v -0.799122 1.242771 -1.000000
v -0.799122 1.242772 -0.876850
v -0.000000 1.185651 -1.000000
v 0.799123 1.135004 -1.000000
v 0.799123 1.135005 -0.876850
v -0.000000 1.185652 -0.876850
v 1.476586 0.990774 -1.000000
v 1.476586 0.990774 -0.876850
v 1.929253 0.774918 -1.000000
v 1.929253 0.774918 -0.876850
v 2.235230 0.520298 -1.000000
v 2.235230 0.520298 -0.876850
v -2.235230 0.520298 -0.876850
v -2.235230 0.520298 -1.000000
v -1.929252 0.774918 -1.000000
v -1.929252 0.774918 -0.876850
v -1.476586 0.990774 -1.000000
v -1.476586 0.990774 -0.876850
v -0.799122 1.135005 -1.000000
v -0.799122 1.135005 -0.876850
v 2.047156 0.694397 0.954174
v 2.117326 0.694397 0.954174
v 2.117326 0.694397 0.885631
v 2.047156 0.694397 0.885631
v 2.117326 0.049608 0.954174
v 2.047156 0.049608 0.954174
v 2.117326 0.049608 0.885631
v 2.047156 0.049608 0.885631
v 1.662709 0.929635 0.945393
v 1.732879 0.929635 0.945393
v 1.732879 0.929635 0.876850
v 1.662709 0.929635 0.876850
v 1.732879 0.284846 0.945393
v 1.662709 0.284846 0.945393
v 1.732879 0.284846 0.876850
v 1.662709 0.284846 0.876850
v 1.077675 1.109678 0.945393
v 1.147845 1.109678 0.945393
v 1.147845 1.109678 0.876850
v 1.077675 1.109678 0.876850
v 1.147845 0.464889 0.945393
v 1.077675 0.464889 0.945393
v 1.147845 0.464889 0.876850
v 1.077675 0.464889 0.876850
v 0.328575 1.207117 0.945393
v 0.398745 1.207117 0.945393
v 0.398745 1.207117 0.876850
v 0.328575 1.207117 0.876850
v 0.398745 0.562328 0.945393
v 0.328575 0.562328 0.945393
v 0.398745 0.562328 0.876850
v 0.328575 0.562328 0.876850
v -0.398745 1.207117 0.945393
v -0.328575 1.207117 0.945393
v -0.328575 1.207117 0.876850
v -0.398745 1.207117 0.876850
v -0.328575 0.562328 0.945393
v -0.398745 0.562328 0.945393
v -0.328575 0.562328 0.876850
v -0.398745 0.562328 0.876850
v -1.147845 1.109678 0.945393
v -1.077675 1.109678 0.945393
v -1.077675 1.109678 0.876850
v -1.147845 1.109678 0.876850
v -1.077675 0.464889 0.945393
v -1.147845 0.464889 0.945393
v -1.077675 0.464889 0.876850
v -1.147845 0.464889 0.876850
v -1.732879 0.929635 0.945393
v -1.662709 0.929635 0.945393
v -1.662709 0.929635 0.876850
v -1.732879 0.929635 0.876850
v -1.662709 0.284846 0.945393
v -1.732879 0.284846 0.945393
v -1.662709 0.284846 0.876850
v -1.732879 0.284846 0.876850
v -2.125232 0.694397 0.945393
v -2.055062 0.694397 0.945393
v -2.055062 0.694397 0.876850
v -2.125232 0.694397 0.876850
v -2.055062 0.049608 0.945393
v -2.125232 0.049608 0.945393
v -2.055062 0.049608 0.876850
v -2.125232 0.049608 0.876850
v 0.000000 1.293419 1.000000
v 0.000000 1.293419 0.876850
v 0.799123 1.242772 1.000000
v 0.799123 1.242772 0.876850
v 1.476586 1.098541 1.000000
v 1.476586 1.098541 0.876850
v 1.929253 0.882685 1.000000
v 1.929253 0.882685 0.876850
v 2.235230 0.628065 1.000000
v 2.235230 0.628065 0.876850
v -2.235230 0.628065 1.000000
v -2.235230 0.628065 0.876850
v -1.929252 0.882685 1.000000
v -1.929252 0.882685 0.876850
v -1.476586 1.098541 1.000000
v -1.476586 1.098541 0.876850
v -0.799122 1.242772 1.000000
v -0.799122 1.242772 0.876850
v -0.000000 1.185652 1.000000
v 0.799123 1.135005 1.000000
v 0.799123 1.135005 0.876850
v -0.000000 1.185652 0.876850
v 1.476586 0.990774 1.000000
v 1.476586 0.990774 0.876850
v 1.929253 0.774918 1.000000
v 1.929253 0.774918 0.876850
v 2.235230 0.520298 1.000000
v 2.235230 0.520299 0.876850
v -2.235230 0.520299 0.876850
v -2.235230 0.520298 1.000000
v -1.929252 0.774918 1.000000
v -1.929252 0.774918 0.876850
v -1.476586 0.990774 1.000000
v -1.476586 0.990775 0.876850
v -0.799122 1.135005 1.000000
v -0.799122 1.135005 0.876850
v 2.117326 0.694397 -0.954174
v 2.117326 0.049607 -0.954174
v 2.047156 0.049607 -0.954174
v 2.047156 0.694397 -0.954174
v 2.117326 0.694397 -0.885631
v 2.117326 0.049607 -0.885631
v 2.047156 0.694397 -0.885631
v 2.047156 0.049607 -0.885631
v 1.732879 0.929635 -0.945393
v 1.732879 0.284845 -0.945393
v 1.662709 0.284845 -0.945393
v 1.662709 0.929635 -0.945393
v 1.732879 0.929635 -0.876850
v 1.732879 0.284845 -0.876850
v 1.662709 0.929635 -0.876850
v 1.662709 0.284845 -0.876850
v 1.147845 1.109678 -0.945393
v 1.147845 0.464889 -0.945393
v 1.077675 0.464889 -0.945393
v 1.077675 1.109678 -0.945393
v 1.147845 1.109678 -0.876850
v 1.147845 0.464889 -0.876850
v 1.077675 1.109678 -0.876850
v 1.077675 0.464889 -0.876850
v 0.398745 1.207117 -0.945393
v 0.398745 0.562327 -0.945393
v 0.328575 0.562327 -0.945393
v 0.328575 1.207117 -0.945393
v 0.398745 1.207117 -0.876850
v 0.398745 0.562327 -0.876850
v 0.328575 1.207117 -0.876850
v 0.328575 0.562327 -0.876850
v -0.328575 1.207117 -0.945393
v -0.328575 0.562327 -0.945393
v -0.398745 0.562327 -0.945393
v -0.398745 1.207117 -0.945393
v -0.328575 1.207117 -0.876850
v -0.328575 0.562327 -0.876850
v -0.398745 1.207117 -0.876850
v -0.398745 0.562327 -0.876850
v -1.077675 1.109678 -0.945393
v -1.077675 0.464889 -0.945393
v -1.147845 0.464889 -0.945393
v -1.147845 1.109678 -0.945393
v -1.077675 1.109678 -0.876850
v -1.077675 0.464889 -0.876850
v -1.147845 1.109678 -0.876850
v -1.147845 0.464889 -0.876850
v -1.662709 0.929635 -0.945393
v -1.662709 0.284845 -0.945393
v -1.732879 0.284845 -0.945393
v -1.732879 0.929635 -0.945393
v -1.662709 0.929635 -0.876850
v -1.662709 0.284845 -0.876850
v -1.732879 0.929635 -0.876850
v -1.732879 0.284845 -0.876850
v -2.055062 0.694397 -0.945393
v -2.055062 0.049607 -0.945393
v -2.125232 0.049607 -0.945393
v -2.125232 0.694397 -0.945393
v -2.055062 0.694397 -0.876850
v -2.055062 0.049607 -0.876850
v -2.125232 0.694397 -0.876850
v -2.125232 0.049607 -0.876850
v 0.000000 0.652252 -1.000000
v 0.799123 0.601605 -1.000000
v 0.799123 0.601606 1.000000
v 0.000000 0.652253 1.000000
v 1.476586 0.457375 -1.000000
v 1.476586 0.457375 1.000000
v 1.929253 0.241519 -1.000000
v 1.929253 0.241519 1.000000
v 2.235230 -0.013101 -1.000000
v 2.235230 -0.013101 -1.000000
v 2.235230 -0.013101 1.000000
v 2.235230 -0.013101 1.000000
v -2.235230 -0.013101 1.000000
v -2.235230 -0.013101 1.000000
v -2.235230 -0.013101 -1.000000
v -2.235230 -0.013101 -1.000000
v -1.929252 0.241519 -1.000000
v -1.929252 0.241519 1.000000
v -1.476586 0.457375 -1.000000
v -1.476586 0.457375 1.000000
v -0.799122 0.601605 -1.000000
v -0.799122 0.601606 1.000000
v -0.000000 0.499305 -1.000000
v 0.799123 0.448658 -1.000000
v 0.799123 0.448658 1.000000
v -0.000000 0.499305 1.000000
v 1.476586 0.304427 -1.000000
v 1.476586 0.304428 1.000000
v 1.929253 0.088571 -1.000000
v 1.929253 0.088572 1.000000
v 2.235230 -0.166049 -1.000000
v 2.235230 -0.166049 -1.000000
v 2.235230 -0.166048 1.000000
v 2.235230 -0.166048 1.000000
v -2.235230 -0.166048 1.000000
v -2.235230 -0.166048 1.000000
v -2.235230 -0.166049 -1.000000
v -2.235230 -0.166049 -1.000000
v -1.929252 0.088571 -1.000000
v -1.929252 0.088572 1.000000
v -1.476586 0.304427 -1.000000
v -1.476586 0.304428 1.000000
v -0.799122 0.448658 -1.000000
v -0.799122 0.448658 1.000000
v 0.000000 1.293418 -1.000000
v 0.799123 1.242771 -1.000000
v 0.799123 1.242771 -0.876850
v 0.000000 1.293418 -0.876850
v 1.476586 1.098541 -1.000000
v 1.476586 1.098541 -0.876850
v 1.929253 0.882685 -1.000000
v 1.929253 0.882685 -0.876850
v 2.235230 0.628065 -1.000000
v 2.235230 0.628065 -1.000000
v 2.235230 0.628065 -0.876850
v 2.235230 0.628065 -0.876850
v -2.235230 0.628065 -0.876850
v -2.235230 0.628065 -0.876850
v -2.235230 0.628065 -1.000000
v -2.235230 0.628065 -1.000000
v -1.929252 0.882685 -1.000000
v -1.929252 0.882685 -0.876850
v -1.476586 1.098541 -1.000000
v -1.476586 1.098541 -0.876850
v -0.799122 1.242771 -1.000000
v -0.799122 1.242772 -0.876850
v -0.000000 1.185651 -1.000000
v 0.799123 1.135004 -1.000000
v 0.799123 1.135005 -0.876850
v -0.000000 1.185652 -0.876850
v 1.476586 0.990774 -1.000000
v 1.476586 0.990774 -0.876850
v 1.929253 0.774918 -1.000000
v 1.929253 0.774918 -0.876850
v 2.235230 0.520298 -1.000000
v 2.235230 0.520298 -1.000000
v 2.235230 0.520298 -0.876850
v 2.235230 0.520298 -0.876850
v -2.235230 0.520298 -0.876850
v -2.235230 0.520298 -0.876850
v -2.235230 0.520298 -1.000000
v -2.235230 0.520298 -1.000000
v -1.929252 0.774918 -1.000000
v -1.929252 0.774918 -0.876850
v -1.476586 0.990774 -1.000000
v -1.476586 0.990774 -0.876850
v -0.799122 1.135005 -1.000000
v -0.799122 1.135005 -0.876850
v 2.117326 0.694397 0.954174
v 2.117326 0.049608 0.954174
v 2.047156 0.049608 0.954174
v 2.047156 0.694397 0.954174
v 2.117326 0.694397 0.885631
v 2.117326 0.049608 0.885631
v 2.047156 0.694397 0.885631
v 2.047156 0.049608 0.885631
v 1.732879 0.929635 0.945393
v 1.732879 0.284846 0.945393
v 1.662709 0.284846 0.945393
v 1.662709 0.929635 0.945393
v 1.732879 0.929635 0.876850
v 1.732879 0.284846 0.876850
v 1.662709 0.929635 0.876850
v 1.662709 0.284846 0.876850
v 1.147845 1.109678 0.945393
v 1.147845 0.464889 0.945393
v 1.077675 0.464889 0.945393
v 1.077675 1.109678 0.945393
v 1.147845 1.109678 0.876850
v 1.147845 0.464889 0.876850
v 1.077675 1.109678 0.876850
v 1.077675 0.464889 0.876850
v 0.398745 1.207117 0.945393
v 0.398745 0.562328 0.945393
v 0.328575 0.562328 0.945393
v 0.328575 1.207117 0.945393
v 0.398745 1.207117 0.876850
v 0.398745 0.562328 0.876850
v 0.328575 1.207117 0.876850
v 0.328575 0.562328 0.876850
v -0.328575 1.207117 0.945393
v -0.328575 0.562328 0.945393
v -0.398745 0.562328 0.945393
v -0.398745 1.207117 0.945393
v -0.328575 1.207117 0.876850
v -0.328575 0.562328 0.876850
v -0.398745 1.207117 0.876850
v -0.398745 0.562328 0.876850
v -1.077675 1.109678 0.945393
v -1.077675 0.464889 0.945393
v -1.147845 0.464889 0.945393
v -1.147845 1.109678 0.945393
v -1.077675 1.109678 0.876850
v -1.077675 0.464889 0.876850
v -1.147845 1.109678 0.876850
v -1.147845 0.464889 0.876850
v -1.662709 0.929635 0.945393
v -1.662709 0.284846 0.945393
v -1.732879 0.284846 0.945393
v -1.732879 0.929635 0.945393
v -1.662709 0.929635 0.876850
v -1.662709 0.284846 0.876850
v -1.732879 0.929635 0.876850
v -1.732879 0.284846 0.876850
v -2.055062 0.694397 0.945393
v -2.055062 0.049608 0.945393
v -2.125232 0.049608 0.945393
v -2.125232 0.694397 0.945393
v -2.055062 0.694397 0.876850
v -2.055062 0.049608 0.876850
v -2.125232 0.694397 0.876850
v -2.125232 0.049608 0.876850
v 0.000000 1.293419 1.000000
v 0.799123 1.242772 1.000000
v 0.799123 1.242772 0.876850
v 0.000000 1.293419 0.876850
v 1.476586 1.098541 1.000000
v 1.476586 1.098541 0.876850
v 1.929253 0.882685 1.000000
v 1.929253 0.882685 0.876850
v 2.235230 0.628065 1.000000
v 2.235230 0.628065 1.000000
v 2.235230 0.628065 0.876850
v 2.235230 0.628065 0.876850
v -2.235230 0.628065 0.876850
v -2.235230 0.628065 0.876850
v -2.235230 0.628065 1.000000
v -2.235230 0.628065 1.000000
v -1.929252 0.882685 1.000000
v -1.929252 0.882685 0.876850
v -1.476586 1.098541 1.000000
v -1.476586 1.098541 0.876850
v -0.799122 1.242772 1.000000
v -0.799122 1.242772 0.876850
v -0.000000 1.185652 1.000000
v 0.799123 1.135005 1.000000
v 0.799123 1.135005 0.876850
v -0.000000 1.185652 0.876850
v 1.476586 0.990774 1.000000
v 1.476586 0.990774 0.876850
v 1.929253 0.774918 1.000000
v 1.929253 0.774918 0.876850
v 2.235230 0.520298 1.000000
v 2.235230 0.520298 1.000000
v 2.235230 0.520299 0.876850
v 2.235230 0.520299 0.876850
v -2.235230 0.520299 0.876850
v -2.235230 0.520299 0.876850
v -2.235230 0.520298 1.000000
v -2.235230 0.520298 1.000000
v -1.929252 0.774918 1.000000
v -1.929252 0.774918 0.876850
v -1.476586 0.990774 1.000000
v -1.476586 0.990775 0.876850
v -0.799122 1.135005 1.000000
v -0.799122 1.135005 0.876850
vn 0.000000 -0.000000 -1.000000
vn 1.000000 0.000000 0.000000
vn 0.000000 0.000000 1.000000
vn -1.000000 0.000000 0.000000
vn 0.000000 1.000000 -0.000000
vn 0.136100 0.990700 -0.000000
vn 0.321500 0.946900 -0.000000
vn 0.539200 0.842200 -0.000000
vn 0.639600 0.768700 -0.000000
vn -0.639600 0.768700 -0.000000
vn -0.539200 0.842200 -0.000000
vn -0.321500 0.946900 -0.000000
vn -0.136100 0.990700 -0.000000
vn -0.000000 -1.000000 0.000000
vn -0.136100 -0.990700 0.000000
vn -0.321500 -0.946900 0.000000
vn -0.539200 -0.842200 0.000000
vn -0.639600 -0.768700 0.000000
vn 0.639600 -0.768700 0.000000
vn 0.539200 -0.842200 0.000000
vn 0.321500 -0.946900 0.000000
vn 0.136100 -0.990700 0.000000
usemtl Material.001
s 1
f 240//1 237//1 238//1 239//1
f 2//2 241//2 242//2 5//2
f 3//3 243//3 244//3 7//3
f 4//4 1//4 6//4 8//4
f 248//1 245//1 246//1 247//1
f 10//2 249//2 250//2 13//2
f 11//3 251//3 252//3 15//3
f 12//4 9//4 14//4 16//4
f 256//1 253//1 254//1 255//1
f 18//2 257//2 258//2 21//2
f 19//3 259//3 260//3 23//3
f 20//4 17//4 22//4 24//4
f 264//1 261//1 262//1 263//1
f 26//2 265//2 266//2 29//2
f 27//3 267//3 268//3 31//3
f 28//4 25//4 30//4 32//4
f 272//1 269//1 270//1 271//1
f 34//2 273//2 274//2 37//2
f 35//3 275//3 276//3 39//3
f 36//4 33//4 38//4 40//4
f 280//1 277//1 278//1 279//1
f 42//2 281//2 282//2 45//2
f 43//3 283//3 284//3 47//3
f 44//4 41//4 46//4 48//4
f 288//1 285//1 286//1 287//1
f 50//2 289//2 290//2 53//2
f 51//3 291//3 292//3 55//3
f 52//4 49//4 54//4 56//4
f 296//1 293//1 294//1 295//1
f 58//2 297//2 298//2 61//2
f 59//3 299//3 300//3 63//3
f 60//4 57//4 62//4 64//4
f 301//5 304//5 303//6 302//6
f 302//6 303//6 306//7 305//7
f 305//7 306//7 308//8 307//8
f 307//8 308//8 311//9 309//9
f 315//10 313//10 318//11 317//11
f 317//11 318//11 320//12 319//12
f 321//13 322//13 304//5 301//5
f 319//12 320//12 322//13 321//13
f 323//14 324//15 325//15 326//14
f 324//15 327//16 328//16 325//15
f 327//16 329//17 330//17 328//16
f 329//17 331//18 333//18 330//17
f 337//19 339//20 340//20 335//19
f 339//20 341//21 342//21 340//20
f 343//22 323//14 326//14 344//22
f 341//21 343//22 344//22 342//21
f 78//3 96//3 98//3 80//3
f 72//3 90//3 334//3 312//3
f 69//1 87//1 85//1 67//1
f 74//2 92//2 332//2 310//2
f 68//3 86//3 88//3 70//3
f 81//1 99//1 97//1 79//1
f 316//4 338//4 336//4 314//4
f 80//3 98//3 100//3 82//3
f 77//1 95//1 93//1 75//1
f 71//1 89//1 87//1 69//1
f 67//1 85//1 83//1 65//1
f 76//3 94//3 96//3 78//3
f 70//3 88//3 90//3 72//3
f 65//1 83//1 99//1 81//1
f 66//3 84//3 86//3 68//3
f 82//3 100//3 84//3 66//3
f 79//1 97//1 95//1 77//1
f 73//1 91//1 89//1 71//1
f 345//5 348//5 347//6 346//6
f 346//6 347//6 350//7 349//7
f 349//7 350//7 352//8 351//8
f 351//8 352//8 355//9 353//9
f 359//10 357//10 362//11 361//11
f 361//11 362//11 364//12 363//12
f 365//13 366//13 348//5 345//5
f 363//12 364//12 366//13 365//13
f 367//14 368//15 369//15 370//14
f 368//15 371//16 372//16 369//15
f 371//16 373//17 374//17 372//16
f 373//17 375//18 377//18 374//17
f 381//19 383//20 384//20 379//19
f 383//20 385//21 386//21 384//20
f 387//22 367//14 370//14 388//22
f 385//21 387//22 388//22 386//21
f 108//3 126//3 378//3 356//3
f 105//1 123//1 120//1 103//1
f 110//2 128//2 376//2 354//2
f 104//3 121//3 124//3 106//3
f 117//1 135//1 133//1 115//1
f 360//4 382//4 380//4 358//4
f 116//3 134//3 136//3 118//3
f 113//1 131//1 130//1 111//1
f 107//1 125//1 123//1 105//1
f 103//1 120//1 119//1 101//1
f 112//3 129//3 132//3 114//3
f 106//3 124//3 126//3 108//3
f 101//1 119//1 135//1 117//1
f 102//3 122//3 121//3 104//3
f 118//3 136//3 122//3 102//3
f 115//1 133//1 131//1 113//1
f 109//1 127//1 125//1 107//1
f 114//3 132//3 134//3 116//3
f 392//3 391//3 390//3 389//3
f 138//2 141//2 394//2 393//2
f 139//1 143//1 396//1 395//1
f 140//4 144//4 142//4 137//4
f 400//3 399//3 398//3 397//3
f 146//2 149//2 402//2 401//2
f 147//1 151//1 404//1 403//1
f 148//4 152//4 150//4 145//4
f 408//3 407//3 406//3 405//3
f 154//2 157//2 410//2 409//2
f 155//1 159//1 412//1 411//1
f 156//4 160//4 158//4 153//4
f 416//3 415//3 414//3 413//3
f 162//2 165//2 418//2 417//2
f 163//1 167//1 420//1 419//1
f 164//4 168//4 166//4 161//4
f 424//3 423//3 422//3 421//3
f 170//2 173//2 426//2 425//2
f 171//1 175//1 428//1 427//1
f 172//4 176//4 174//4 169//4
f 432//3 431//3 430//3 429//3
f 178//2 181//2 434//2 433//2
f 179//1 183//1 436//1 435//1
f 180//4 184//4 182//4 177//4
f 440//3 439//3 438//3 437//3
f 186//2 189//2 442//2 441//2
f 187//1 191//1 444//1 443//1
f 188//4 192//4 190//4 185//4
f 448//3 447//3 446//3 445//3
f 194//2 197//2 450//2 449//2
f 195//1 199//1 452//1 451//1
f 196//4 200//4 198//4 193//4
f 453//5 454//6 455//6 456//5
f 454//6 457//7 458//7 455//6
f 457//7 459//8 460//8 458//7
f 459//8 461//9 463//9 460//8
f 467//10 469//11 470//11 465//10
f 469//11 471//12 472//12 470//11
f 473//13 453//5 456//5 474//13
f 471//12 473//13 474//13 472//12
f 475//14 478//14 477//15 476//15
f 476//15 477//15 480//16 479//16
f 479//16 480//16 482//17 481//17
f 481//17 482//17 485//18 483//18
f 489//19 487//19 492//20 491//20
f 491//20 492//20 494//21 493//21
f 495//22 496//22 478//14 475//14
f 493//21 494//21 496//22 495//22
f 208//1 464//1 486//1 226//1
f 205//3 203//3 220//3 223//3
f 210//2 462//2 484//2 228//2
f 204//1 206//1 224//1 221//1
f 217//3 215//3 233//3 235//3
f 468//4 466//4 488//4 490//4
f 216//1 218//1 236//1 234//1
f 213//3 211//3 230//3 231//3
f 207//3 205//3 223//3 225//3
f 203//3 201//3 219//3 220//3
f 212//1 214//1 232//1 229//1
f 206//1 208//1 226//1 224//1
f 201//3 217//3 235//3 219//3
f 202//1 204//1 221//1 222//1
f 218//1 202//1 222//1 236//1
f 215//3 213//3 231//3 233//3
f 209//3 207//3 225//3 227//3
f 214//1 216//1 234//1 232//1
