# Blender v2.76 (sub 0) OBJ File: ''
# www.blender.org
mtllib energy_remain.mtl
o energy_remain_Icosphere
v 0.000000 -0.044161 -0.000000
v 0.031955 -0.019750 0.023217
v -0.012206 -0.019750 0.037565
v 0.031955 -0.019750 -0.023217
v -0.039499 -0.019750 -0.000000
v -0.012206 -0.019750 -0.037565
v 0.039499 0.019750 0.000000
v 0.012206 0.019750 0.037565
v -0.031955 0.019750 0.023217
v -0.031955 0.019750 -0.023217
v 0.012206 0.019750 -0.037565
v 0.000000 0.044161 0.000000
vn 0.187600 -0.794700 0.577300
vn 0.607100 -0.794700 -0.000000
vn -0.491100 -0.794700 0.356800
vn -0.491100 -0.794700 -0.356800
vn 0.187600 -0.794700 -0.577300
vn 0.982200 -0.187600 -0.000000
vn 0.303500 -0.187600 0.934200
vn -0.794700 -0.187600 0.577400
vn -0.794700 -0.187600 -0.577400
vn 0.303500 -0.187600 -0.934200
vn 0.794700 0.187600 0.577400
vn -0.303500 0.187600 0.934200
vn -0.982200 0.187600 0.000000
vn -0.303500 0.187600 -0.934200
vn 0.794700 0.187600 -0.577400
vn 0.491100 0.794700 0.356800
vn -0.187600 0.794700 0.577300
vn -0.607100 0.794700 0.000000
vn -0.187600 0.794700 -0.577300
vn 0.491100 0.794700 -0.356800
usemtl Material.001
s 1
f 1//1 2//1 3//1
f 2//2 1//2 4//2
f 1//3 3//3 5//3
f 1//4 5//4 6//4
f 1//5 6//5 4//5
f 2//6 4//6 7//6
f 3//7 2//7 8//7
f 5//8 3//8 9//8
f 6//9 5//9 10//9
f 4//10 6//10 11//10
f 2//11 7//11 8//11
f 3//12 8//12 9//12
f 5//13 9//13 10//13
f 6//14 10//14 11//14
f 4//15 11//15 7//15
f 8//16 7//16 12//16
f 9//17 8//17 12//17
f 10//18 9//18 12//18
f 11//19 10//19 12//19
f 7//20 11//20 12//20
