# Blender v2.76 (sub 0) OBJ File: ''
# www.blender.org
mtllib tree2.mtl
o tree_Circle.000
v 0.268651 -0.011314 0.350114
v 0.133881 1.735188 0.144739
v -0.095638 1.735188 0.144739
v -0.259299 -0.011314 0.350114
v -0.422444 -0.011314 -0.151996
v -0.166564 1.735188 -0.073549
v 0.019122 1.735188 -0.208456
v 0.004676 -0.011314 -0.462315
v 0.431796 -0.011314 -0.151996
v 0.204807 1.735188 -0.073549
v 0.057696 2.420455 -0.311623
v 0.234790 2.419499 -0.286050
v 0.213706 2.256122 -0.219012
v 0.036612 2.257079 -0.244586
v -0.436170 2.433915 0.287221
v -0.521186 2.428330 0.047742
v 0.020958 2.045372 0.119169
v -0.242370 2.445219 0.261651
v -0.246045 2.414393 -0.052285
v -0.063956 2.065409 -0.150061
v -0.306588 2.574826 0.154473
v -0.036374 2.174977 0.033183
v -0.544720 2.613929 -0.028275
v -0.649692 2.636255 0.490715
v -0.263412 2.625092 0.295209
v -0.343349 2.630672 0.392962
v 0.792051 2.342698 -0.166159
v 0.721126 2.342698 0.052128
v 0.134040 2.015759 -0.287883
v 0.653749 2.343438 -0.160756
v 0.170671 2.082665 -0.005267
v 0.538742 2.375629 -0.116932
v 0.139450 2.061652 0.114393
v 0.586613 2.418401 0.111207
v 0.152769 2.306536 0.047218
v -0.014075 2.530407 0.099703
v -0.099051 2.448630 -0.157988
v -0.067713 2.311805 -0.062403
v 0.465951 3.845770 1.076397
v 0.443801 4.269116 0.952628
v -0.315783 4.255578 1.527213
v -0.316514 3.845770 1.844397
v 0.192484 3.008760 0.979438
v 0.405597 3.405463 1.094158
v -0.338662 3.405463 1.860088
v -0.440126 3.008760 1.588866
v 0.227154 4.602881 0.737805
v -0.311799 4.593397 1.067416
v -0.139735 3.563919 -0.924525
v 0.110298 3.984727 -0.744028
v 0.764672 3.976194 -0.924525
v 0.797752 3.582363 -1.149598
v 0.250892 4.432420 -0.418786
v 0.672382 4.320441 -0.518954
v 0.630008 2.596838 -0.518954
v 0.722575 2.842790 -0.924525
v 1.356752 2.842790 -0.418786
v 0.981948 2.409562 -0.238291
v 0.775229 3.196951 -1.149598
v 1.564752 3.594520 -0.518954
v 1.564752 3.198202 -0.518954
v 0.989343 4.320324 -0.238289
v 1.356752 3.996076 -0.418786
v 1.356752 2.710972 0.392355
v 0.891191 2.392601 0.041743
v 1.564752 3.594520 0.492523
v 1.564752 3.198202 0.492523
v 0.981948 4.325213 0.211860
v 1.356752 3.996076 0.392355
v 0.630006 4.325213 0.492524
v 0.722575 3.996076 0.898094
v 0.773947 3.198202 1.123168
v 0.722575 2.724668 0.898094
v 0.773947 3.594520 1.123168
v 0.630006 2.448998 0.289321
v -1.214719 4.341651 -0.389935
v -0.849943 4.607068 0.012334
v -0.249343 4.652526 -0.084086
v -0.319042 4.503593 -0.607438
v -0.767490 2.613929 -0.452923
v -0.973124 2.734232 0.001992
v -1.232496 3.008760 -0.389936
v -0.913621 2.865032 -0.736435
v -1.376437 3.932306 -0.607438
v -0.490430 3.893026 -0.865516
v -1.584438 3.008760 0.490715
v -1.792764 3.405463 0.490715
v -1.376437 3.406773 -0.607438
v -1.778365 3.846456 0.490715
v -1.168436 2.734232 0.490715
v 0.324655 4.325259 0.392355
v 0.171439 4.497243 0.085583
v 0.529458 4.442207 -0.013215
v 0.047560 4.602816 0.231983
v 0.439416 2.412437 -0.046700
v -1.143641 3.405463 1.588866
v -1.130378 3.008760 1.371364
v -0.998543 4.270565 1.361060
v -1.084389 3.845802 1.588866
v -0.534260 2.734232 1.100143
v -0.971724 2.734232 0.979438
v -0.797800 4.601988 0.975368
v -1.548176 4.276132 0.490715
v -1.082990 4.605790 0.495642
v -0.298024 4.737133 0.493728
v 0.357255 3.394839 -0.901135
v -0.044162 3.394839 -1.194436
v 0.357255 2.613929 -0.872554
v 0.488914 2.865032 -0.966276
v 0.120013 2.440160 -0.717833
v -0.011644 3.143735 -1.307075
v 0.488914 3.143735 -0.975750
v -0.044162 2.613929 -1.118521
v -0.011644 2.865032 -1.291440
v -0.635831 3.143735 -1.035668
v -0.635831 2.865032 -1.010949
v -0.102755 2.440160 -0.853765
v -0.544720 2.613929 -0.901702
v -0.544720 3.394839 -0.964020
v -0.380545 2.440160 -0.733384
v -0.504172 2.440160 -0.489856
v -0.175821 2.378143 -0.524665
v -0.380545 2.440160 -0.257353
v 0.138849 2.723792 0.854371
vn 0.604100 0.384800 0.697800
vn 0.599500 -0.529600 0.600100
vn 0.393600 0.710600 0.583300
vn -0.219300 0.481000 -0.848900
vn -0.113700 0.677500 -0.726700
vn 0.330600 -0.736600 -0.590000
vn 0.629600 -0.018100 -0.776700
vn 0.427800 0.744100 -0.513200
vn 0.538200 -0.506500 -0.673700
vn 0.565500 0.453200 -0.689100
vn 0.671000 -0.740100 -0.045100
vn 1.000000 0.000000 0.000000
vn 0.660800 0.750600 0.001000
vn 0.896200 -0.442500 -0.032000
vn 0.887900 0.459900 0.000000
vn 0.411400 0.751400 0.515900
vn 0.569800 -0.397300 0.719300
vn 0.553600 0.459900 0.694200
vn 0.261900 -0.881300 0.393300
vn 0.623500 0.000000 0.781800
vn 0.079300 0.275500 0.958000
vn -0.196000 0.926000 -0.322500
vn -0.137000 -0.105700 0.984900
vn -0.650600 -0.737000 -0.183000
vn -0.257200 0.476100 -0.840900
vn -0.829600 -0.455900 -0.322400
vn -0.937200 0.014000 -0.348600
vn -0.537900 -0.815100 -0.215000
vn 0.553000 0.832500 -0.034200
vn 0.122000 0.986700 -0.107600
vn 0.214900 0.961600 -0.170800
vn 0.744500 0.646100 -0.168200
vn -0.150100 -0.898900 -0.411600
vn 0.165400 0.968400 -0.186400
vn 0.253300 0.967400 -0.006300
vn 0.154300 0.968900 0.193500
vn -0.078400 0.967700 0.239500
vn 0.242000 0.892900 0.379700
vn 0.708200 -0.039600 0.704900
vn -0.272100 -0.482600 0.832500
vn -0.228100 0.548800 0.804200
vn -0.154300 -0.843500 0.514600
vn -0.317200 0.046200 0.947200
vn -0.116300 0.792300 0.599000
vn -0.516300 0.838700 -0.173400
vn -0.185100 -0.979900 -0.074000
vn -0.841000 0.464700 -0.277000
vn -0.164700 0.983300 -0.076800
vn -0.098900 0.983400 -0.152300
vn -0.266300 -0.962300 0.056000
vn 0.050700 0.011000 -0.998700
vn 0.282500 0.952300 -0.115600
vn 0.291200 0.951000 -0.103500
vn 0.132200 0.960700 0.243900
vn -0.046100 -0.984900 0.167100
vn -0.028700 0.969800 0.242300
vn -0.817200 -0.353100 0.455600
vn -0.768900 0.414200 0.487100
vn -0.163900 0.980900 0.105200
vn -0.563800 -0.781300 0.267900
vn -0.851000 0.071100 0.520400
vn -0.553100 0.757200 0.347300
vn -0.185100 -0.979900 0.074500
vn 0.380800 -0.735200 -0.560900
vn 0.344900 -0.928700 -0.136100
vn 0.510700 0.441900 -0.737500
vn 0.454000 -0.529100 -0.716900
vn -0.723300 -0.020200 -0.690300
vn 0.548000 -0.037600 -0.835600
vn 0.293000 -0.827500 -0.478900
vn -0.352700 -0.489300 -0.797600
vn -0.113100 0.474900 -0.872800
vn -0.403500 -0.066100 -0.912600
vn -0.246600 -0.784300 -0.569300
vn -0.380500 0.357400 -0.852900
vn -0.631600 -0.640300 -0.437100
vn 0.432000 0.854100 -0.289600
vn -0.553500 -0.785500 -0.276900
vn -0.079500 -0.938300 0.336500
vn 0.107000 0.463900 -0.879400
vn -0.194800 -0.975800 -0.098900
vn 0.302700 0.695000 -0.652200
vn -0.332100 0.107800 -0.937100
vn -0.546500 -0.225700 -0.806500
vn -0.088100 -0.975100 -0.203300
vn 0.099400 -0.981600 -0.162900
vn 0.194000 -0.980800 -0.017800
vn 0.007100 -0.982300 0.187300
vn -0.040000 -0.979700 0.196700
vn 0.618800 0.512900 0.595000
vn -0.503400 -0.822300 0.265300
vn -0.175200 -0.980100 0.093200
vn -0.505900 0.014400 -0.862500
vn -0.214800 -0.323600 -0.921500
vn 0.267800 -0.929600 -0.253400
vn -0.192300 -0.964400 0.181500
vn -0.079500 -0.408700 0.909200
vn -0.126200 -0.930800 0.343000
vn 0.370900 -0.729000 0.575200
vn -0.322300 -0.942000 0.093000
vn 0.564700 -0.563700 0.602800
vn 0.038200 -0.987200 0.154900
vn -0.086900 -0.968500 0.233500
vn -0.193200 -0.957000 0.216200
vn 0.017500 -0.909900 0.414500
vn 0.322800 -0.943700 0.072600
vn -0.261900 0.525000 -0.809800
vn -0.032000 -0.689700 -0.723400
vn 0.000000 -1.000000 -0.000000
vn 0.000000 0.116800 0.993200
vn -0.583400 0.121500 -0.803000
vn 0.945400 0.109100 0.307200
vn -0.943700 0.124500 0.306600
vn 0.584100 0.112000 -0.803900
vn 0.129500 -0.390700 -0.911400
vn -0.833200 -0.471000 0.289600
vn 0.264800 -0.103100 0.958800
vn -0.409900 -0.019400 -0.911900
vn 0.766400 0.556700 -0.320600
vn 0.844600 0.512200 0.155800
vn -0.853800 -0.520600 -0.003300
vn 0.987200 0.091100 0.130800
vn 0.207700 -0.537300 0.817400
vn 0.716700 -0.657300 0.232900
vn 0.347100 -0.379100 -0.857800
vn -0.530300 0.767500 -0.360300
vn -0.624800 0.780600 -0.018900
vn 0.121600 -0.031900 0.992100
vn 0.009700 0.085600 0.996300
vn 0.258500 0.794700 0.549200
vn -0.278800 0.059400 -0.958500
vn -0.579500 -0.001700 -0.815000
vn 0.532000 -0.425200 -0.732200
vn -0.331700 -0.393300 -0.857500
vn 0.985600 -0.151000 0.075900
vn 0.878500 0.343100 0.332500
vn -0.228100 0.227000 0.946800
vn -0.969700 0.068600 -0.234500
vn -0.785300 -0.315400 -0.532700
vn -0.679800 -0.604100 0.415900
usemtl tree_crown.001
s 1
f 39//1 40//1 41//1 42//1
f 43//2 44//2 45//2 46//2
f 40//3 47//3 48//3 41//3
f 49//4 50//4 51//4 52//4
f 50//5 53//5 54//5 51//5
f 55//6 56//6 57//6 58//6
f 59//7 52//7 60//7 61//7
f 51//8 54//8 62//8 63//8
f 56//9 59//9 61//9 57//9
f 52//10 51//10 63//10 60//10
f 58//11 57//11 64//11 65//11
f 61//12 60//12 66//12 67//12
f 63//13 62//13 68//13 69//13
f 57//14 61//14 67//14 64//14
f 60//15 63//15 69//15 66//15
f 69//16 68//16 70//16 71//16
f 64//17 67//17 72//17 73//17
f 66//18 69//18 71//18 74//18
f 65//19 64//19 73//19 75//19
f 67//20 66//20 74//20 72//20
f 44//21 74//21 71//21 39//21
f 76//22 77//22 78//22 79//22
f 43//23 72//23 74//23 44//23
f 80//24 81//24 82//24 83//24
f 84//25 76//25 79//25 85//25
f 86//26 87//26 88//26 82//26
f 87//27 89//27 84//27 88//27
f 90//28 86//28 82//28 81//28
f 40//29 70//29 91//29 47//29
f 92//30 93//30 53//30
f 53//31 93//31 54//31
f 94//32 47//32 91//32 92//32
f 95//33 55//33 58//33
f 54//34 93//34 62//34
f 62//35 93//35 68//35
f 68//36 93//36 70//36
f 70//37 93//37 91//37
f 91//38 93//38 92//38
f 44//39 39//39 42//39 45//39
f 46//40 45//40 96//40 97//40
f 42//41 41//41 98//41 99//41
f 100//42 46//42 97//42 101//42
f 45//43 42//43 99//43 96//43
f 41//44 48//44 102//44 98//44
f 103//45 104//45 77//45 76//45
f 24//46 90//46 81//46
f 89//47 103//47 76//47 84//47
f 104//48 105//48 77//48
f 77//49 105//49 78//49
f 80//50 23//50 24//50 81//50
f 49//51 52//51 106//51 107//51
f 78//52 105//52 94//52
f 94//53 105//53 47//53
f 47//54 105//54 48//54
f 24//55 100//55 101//55
f 48//56 105//56 102//56
f 97//57 96//57 87//57 86//57
f 99//58 98//58 103//58 89//58
f 102//59 105//59 104//59
f 101//60 97//60 86//60 90//60
f 96//61 99//61 89//61 87//61
f 98//62 102//62 104//62 103//62
f 24//63 101//63 90//63
f 55//64 108//64 109//64 56//64
f 110//65 108//65 12//65 11//65
f 111//66 107//66 106//66 112//66
f 113//67 114//67 109//67 108//67
f 82//68 115//68 116//68 83//68
f 114//69 111//69 112//69 109//69
f 117//70 113//70 108//70 110//70
f 118//71 116//71 114//71 113//71
f 49//72 107//72 119//72 85//72
f 116//73 115//73 111//73 114//73
f 120//74 118//74 113//74 117//74
f 115//75 119//75 107//75 111//75
f 80//76 83//76 116//76 118//76
f 92//77 79//77 78//77 94//77
f 121//78 80//78 118//78 120//78
f 36//79 25//79 21//79 37//79
f 53//80 50//80 49//80 85//80
f 122//81 121//81 120//81
f 53//82 85//82 79//82 92//82
f 85//83 119//83 88//83 84//83
f 82//84 88//84 119//84 115//84
f 122//85 120//85 117//85
f 122//86 117//86 110//86
f 122//87 110//87 11//87
f 122//88 11//88 37//88
f 122//89 37//89 123//89
f 39//90 71//90 70//90 40//90
f 123//91 23//91 80//91 121//91
f 122//92 123//92 121//92
f 59//93 112//93 106//93 52//93
f 56//94 109//94 112//94 59//94
f 95//95 12//95 108//95 55//95
f 36//96 12//96 95//96 75//96
f 73//97 72//97 43//97 124//97
f 36//98 75//98 73//98 124//98
f 100//99 124//99 43//99 46//99
f 23//100 123//100 37//100 19//100
f 21//101 19//101 37//101
f 24//102 26//102 124//102 100//102
f 36//103 124//103 26//103 25//103
f 75//104 95//104 32//104 34//104
f 75//105 34//105 28//105 65//105
f 65//106 28//106 27//106 58//106
f 95//107 58//107 30//107 32//107
f 27//108 30//108 58//108
f 5//109 8//109 9//109 1//109 4//109
usemtl tree_stem.001
f 1//110 2//110 3//110 4//110
f 5//111 6//111 7//111 8//111
f 9//112 10//112 2//112 1//112
f 4//113 3//113 6//113 5//113
f 8//114 7//114 10//114 9//114
f 11//115 12//115 13//115 14//115
f 3//116 15//116 16//116 6//116
f 3//117 17//117 18//117 15//117
f 16//118 19//118 20//118 6//118
f 19//119 21//119 22//119 20//119
f 18//120 17//120 22//120 21//120
f 23//121 16//121 15//121 24//121
f 21//122 25//122 26//122 18//122
f 18//123 26//123 24//123 15//123
f 10//124 27//124 28//124 2//124
f 10//125 29//125 30//125 27//125
f 29//126 31//126 32//126 30//126
f 31//127 33//127 34//127 32//127
f 2//128 28//128 34//128 33//128
f 2//129 33//129 17//129 3//129
f 22//130 17//130 33//130 31//130
f 20//131 14//131 13//131 29//131
f 7//132 6//132 20//132 29//132
f 10//133 7//133 29//133
f 19//134 16//134 23//134
f 31//135 29//135 13//135 35//135
f 36//136 35//136 13//136 12//136
f 22//137 31//137 35//137 37//137 38//137
f 22//138 38//138 14//138 20//138
f 37//139 11//139 14//139 38//139
f 37//140 35//140 36//140
