# Blender v2.76 (sub 0) OBJ File: ''
# www.blender.org
mtllib grab_flower_tool.mtl
o Cube.002
v -0.061185 0.418557 -0.037689
v -0.063879 0.415507 -0.121847
v -0.030716 0.415978 -0.084340
v -0.160149 0.430031 -0.067434
v -0.094238 0.427176 -0.172664
v -0.172614 0.439656 -0.102365
v -0.129429 0.438916 -0.171320
v -0.045514 0.420345 0.043735
v -0.104298 0.416179 -0.028697
v -0.089338 0.429491 0.084691
v -0.157925 0.426789 0.000678
v -0.169096 0.434394 0.029979
v -0.026095 0.421231 0.005547
v 0.037838 0.419152 0.026699
v -0.025995 0.418806 0.046008
v 0.066770 0.425925 0.055094
v -0.035373 0.418646 0.082518
v -0.006633 0.424894 0.104789
v 0.026060 0.420309 -0.014383
v 0.061510 0.417339 -0.077179
v 0.065359 0.421929 -0.002297
v 0.105465 0.428218 -0.096592
v 0.109778 0.430124 0.015733
v 0.133951 0.433490 -0.079266
v 0.136997 0.434824 0.000070
v 0.023204 0.417315 -0.069937
v -0.030057 0.415907 -0.120428
v 0.049224 0.417874 -0.099250
v -0.026158 0.428307 -0.171547
v 0.080628 0.423813 -0.146798
v -0.007761 0.433980 -0.195837
v 0.076644 0.430427 -0.176275
v -0.156554 0.433726 -0.003975
v -0.109670 0.424162 -0.028641
v -0.066558 0.427701 -0.037634
v -0.009930 0.431296 0.097465
v -0.037995 0.423467 0.076704
v -0.046201 0.427090 0.043752
v -0.085382 0.434402 0.081511
v -0.026783 0.428048 0.005565
v -0.116415 0.443103 0.093720
v -0.120373 0.438607 0.096899
v -0.026830 0.424835 0.044668
v 0.106405 0.436303 0.016439
v 0.064137 0.428498 -0.002277
v 0.036485 0.425412 0.025463
v 0.133625 0.441003 0.000776
v 0.063903 0.427750 0.049872
v 0.024838 0.426789 -0.014363
v 0.063536 0.436732 0.085800
v 0.060668 0.438889 0.080580
v 0.049026 0.423797 -0.099238
v 0.061312 0.423263 -0.077168
v 0.076629 0.436053 -0.173591
v 0.080612 0.429440 -0.144113
v 0.103303 0.433935 -0.095955
v 0.023006 0.423239 -0.069925
v 0.131790 0.439207 -0.078629
v -0.089219 0.431692 -0.169290
v -0.031483 0.423357 -0.085208
v -0.030823 0.423286 -0.121296
v -0.026721 0.435511 -0.169022
v -0.064646 0.422051 -0.122713
v -0.008322 0.441183 -0.193312
v -0.154090 0.434787 -0.064382
v -0.166553 0.445175 -0.099313
v -0.110161 0.425793 -0.051705
v -0.167723 0.442340 0.025324
v -0.110461 0.419192 -0.050524
v -0.124408 0.443814 -0.167947
v -0.018175 0.000246 -0.033240
v 0.001016 0.147562 -0.024482
v -0.006525 0.147484 -0.047086
v 0.029039 0.000527 -0.033332
v 0.031858 0.147957 -0.046799
v 0.044512 0.000627 0.012138
v 0.005731 0.000373 0.040410
v -0.032974 0.000140 0.012362
v 0.012792 0.147733 -0.060895
v 0.024721 0.147868 -0.024310
v -0.041453 0.287281 -0.032086
v -0.005586 0.286753 -0.045792
v -0.004358 0.288200 -0.022181
v -0.026526 0.288526 -0.013710
v -0.028544 0.286188 -0.051913
v -0.016178 0.410478 -0.015349
v -0.018142 0.408137 -0.053553
v 0.004777 0.408702 -0.047430
v 0.005993 0.410150 -0.023819
v -0.031094 0.409236 -0.033727
vn -0.943500 0.104200 0.314400
vn 0.945700 -0.047500 -0.321700
vn -0.557200 0.320000 0.766300
vn -0.566600 -0.211600 -0.796400
vn 0.566200 0.269000 0.779100
vn -0.915300 -0.261600 0.306300
vn 0.585200 0.163600 -0.794200
vn 0.356900 -0.001600 0.934100
vn -0.576300 -0.119600 -0.808400
vn 0.977000 0.203400 -0.063300
vn 0.356600 -0.017700 0.934100
vn 0.356700 -0.017700 0.934100
vn -0.834600 0.063800 -0.547200
vn -0.834000 0.063500 -0.548100
vn -0.834700 0.063800 -0.547000
vn 0.995300 -0.085200 -0.046500
vn 0.995300 -0.085100 -0.046100
vn -0.776500 0.074400 0.625700
vn -0.776700 0.074300 0.625500
vn 0.258300 -0.035000 -0.965400
vn 0.258700 -0.035000 -0.965300
vn 0.006200 -1.000000 -0.000100
vn 0.006300 -1.000000 -0.000100
vn 0.006200 -1.000000 -0.000200
vn 0.446100 -0.894600 0.026900
vn 0.443900 -0.895600 0.028700
vn 0.439300 -0.897800 0.032400
vn -0.316700 -0.895200 0.313700
vn -0.315200 -0.895700 0.313700
vn -0.318400 -0.894500 0.313700
vn 0.099400 -0.953800 -0.283600
vn 0.099300 -0.953800 -0.283600
vn 0.099300 -0.953800 -0.283700
vn 0.182900 -0.836700 0.516200
vn 0.183100 -0.837400 0.515000
vn 0.182800 -0.836200 0.517100
vn -0.277900 -0.951900 -0.128900
vn -0.278000 -0.951900 -0.128900
vn -0.941800 0.140800 -0.305300
vn 0.593000 -0.084500 -0.800800
vn -0.011900 0.403100 0.915100
vn -0.001400 -0.093500 -0.995600
vn 0.933900 0.199100 0.297100
vn -0.754700 -0.195300 0.626300
vn 0.252000 0.137400 -0.957900
vn -0.007000 -0.016600 0.999800
vn -0.832200 -0.150700 -0.533600
vn 0.923400 0.247000 0.294000
vn -0.833900 0.063500 -0.548300
vn -0.776700 0.074300 0.625400
vn 0.006300 -1.000000 -0.000400
vn 0.005900 -1.000000 -0.000400
vn 0.448300 -0.893500 0.025100
vn -0.311700 -0.896900 0.313600
vn 0.099400 -0.953800 -0.283500
vn 0.183500 -0.838700 0.512800
vn -0.277900 -0.951900 -0.128800
vn -0.024200 -0.999000 0.037000
vn -0.025300 -0.999000 0.037000
vn -0.027800 -0.998900 0.037100
vn -0.204300 -0.973600 -0.101500
vn -0.309400 -0.933900 -0.179200
vn -0.294200 -0.942100 -0.160800
vn -0.317200 -0.929400 -0.188700
vn 0.059000 -0.998200 0.010600
vn 0.061300 -0.998100 0.010100
vn 0.057300 -0.998300 0.010900
vn -0.122500 -0.983700 0.131700
vn -0.183500 -0.966300 0.180800
vn -0.012700 -0.998100 -0.059800
vn 0.075100 -0.997100 0.014900
vn 0.107200 -0.984600 0.137900
vn 0.019200 -0.998100 0.058000
vn 0.015400 -0.998300 0.055900
vn 0.022700 -0.997900 0.060000
vn 0.177600 -0.984100 0.009900
vn 0.175700 -0.984400 0.009800
vn 0.176100 -0.984300 0.009900
vn 0.175600 -0.984400 0.009800
vn 0.024200 -0.999700 0.002400
vn 0.024100 -0.999700 0.002400
vn -0.011300 -0.991300 -0.131300
vn 0.010000 -0.975400 -0.220200
vn -0.937500 -0.041500 -0.345500
vn -0.937400 -0.045100 -0.345400
vn -0.937300 -0.046400 -0.345300
vn -0.502800 -0.332800 -0.797800
vn -0.193400 -0.121500 -0.973600
vn -0.196700 -0.111300 -0.974100
vn -0.197100 -0.109900 -0.974200
vn -0.608200 0.454200 0.651000
vn 0.683700 -0.081100 0.725200
vn -0.994900 -0.100300 -0.003500
vn 0.412900 0.238400 0.879000
vn 0.416800 0.249300 0.874200
vn 0.417200 0.250500 0.873600
vn -0.951400 -0.186300 -0.245200
vn 0.886900 0.089100 0.453200
vn 0.887100 0.088400 0.453100
vn 0.886900 0.089200 0.453200
vn -0.392000 -0.075800 0.916900
vn 0.951100 0.152900 -0.268400
vn 0.471800 0.158400 0.867400
vn 0.471800 0.158300 0.867400
vn 0.471700 0.158400 0.867400
vn 0.655900 -0.524000 -0.543300
vn -0.291200 -0.057800 0.954900
vn -0.291300 -0.057300 0.954900
vn 0.750800 0.642600 -0.153000
vn 0.727000 0.667800 -0.159500
vn 0.755500 0.637400 -0.151600
vn 0.832600 0.026600 0.553200
vn -0.185800 -0.004200 -0.982600
vn -0.185800 -0.004300 -0.982600
vn 0.990900 0.060200 -0.120400
vn 0.990900 0.060100 -0.120400
vn -0.393900 -0.046700 -0.918000
vn 0.747400 0.023600 0.663900
vn 0.463600 0.269400 -0.844100
vn 0.463600 0.269300 -0.844100
vn 0.128900 0.473100 -0.871500
vn 0.131700 0.490900 -0.861200
vn 0.132300 0.494700 -0.858900
vn -0.994300 -0.105400 -0.018000
vn 0.749100 0.000000 -0.662400
vn 0.749200 -0.000100 -0.662400
vn -0.994300 -0.043900 -0.096700
vn 0.861400 0.033800 -0.506800
vn -0.804800 0.139500 -0.577000
vn -0.804800 0.139300 -0.577000
vn -0.804900 0.139000 -0.576900
vn -0.712200 0.562800 0.419500
vn -0.688100 0.597200 0.412100
vn -0.717400 0.555100 0.421000
vn -0.309500 -0.202000 0.929200
vn -0.721200 0.438600 0.536100
vn 0.205600 0.964600 -0.165000
vn 0.079300 0.990800 -0.109600
vn -0.023100 0.999600 0.013300
vn -0.309200 0.181100 0.933600
vn -0.529700 0.777100 -0.340100
vn 0.313400 0.935000 0.166200
vn 0.182100 0.981100 0.065000
vn 0.034700 0.997300 -0.065400
vn 0.221600 0.420300 -0.879900
vn 0.002000 0.973500 0.228800
vn -0.072900 0.967600 0.241600
vn 0.002700 1.000000 -0.001900
vn 0.875900 0.481500 -0.031100
vn -0.172500 0.984900 -0.016000
vn -0.269800 0.961200 -0.057000
vn -0.012600 0.997900 -0.063300
vn 0.070200 0.766500 0.638400
vn -0.183000 0.917900 -0.352200
vn -0.028400 0.997600 -0.063700
vn 0.033900 0.999100 0.024600
vn 0.015700 0.999600 -0.022500
vn 0.023000 0.997000 -0.074100
vn 0.024700 0.997300 -0.069300
vn 0.025300 0.997400 -0.067800
vn 0.026400 0.997600 -0.064600
vn -0.022500 -0.999100 0.036900
vn -0.188900 -0.979300 -0.072800
vn -0.290600 -0.944000 -0.156400
vn 0.064300 -0.997900 0.009500
vn -0.087100 -0.988000 0.127500
vn -0.200300 -0.957800 0.206100
vn -0.025600 -0.999500 -0.020800
vn 0.058300 -0.982800 0.175100
vn 0.246100 -0.905900 0.344700
vn 0.010700 -0.998500 0.053300
vn 0.259000 -0.964800 0.045800
vn 0.085200 -0.969800 -0.228800
vn -0.937500 -0.040400 -0.345500
vn -0.488300 -0.417500 -0.766300
vn -0.193000 -0.123000 -0.973500
vn -0.607500 0.442100 0.659900
vn 0.688800 0.068300 0.721800
vn -0.990100 -0.140000 -0.012700
vn 0.412500 0.237200 0.879500
vn -0.676100 -0.687500 -0.265000
vn 0.887100 0.088300 0.453100
vn -0.317100 -0.276800 0.907100
vn 0.945900 0.179200 -0.270400
vn 0.665100 -0.003600 -0.746700
vn -0.291300 -0.057200 0.954900
vn 0.721700 0.673300 -0.161000
vn 0.805800 -0.253200 0.535300
vn 0.990900 0.060100 -0.120500
vn -0.405900 -0.011800 -0.913900
vn 0.128500 0.469800 -0.873400
vn 0.749100 0.000100 -0.662400
vn -0.988000 -0.114800 -0.103200
vn 0.741900 -0.461000 -0.486800
vn -0.681900 0.605600 0.410200
vn -0.281100 0.181400 0.942400
vn -0.559200 0.746800 0.360100
vn 0.225000 0.954700 -0.194900
vn 0.136600 0.983100 -0.121500
vn -0.076300 0.996700 0.026600
vn -0.250900 -0.153200 0.955800
vn -0.532500 0.774100 -0.342300
vn 0.326500 0.927500 0.182100
vn 0.201200 0.974900 0.095600
vn -0.022100 0.997500 -0.066700
vn 0.232100 0.337800 -0.912100
vn 0.008400 0.976000 0.217800
vn 0.023300 0.989800 0.140900
vn -0.009400 0.999900 0.010700
vn 0.933000 0.357400 -0.041800
vn -0.180200 0.983500 -0.018100
vn -0.174700 0.984500 -0.015900
vn -0.022200 0.997400 -0.068900
vn -0.045200 0.914200 0.402700
vn -0.100900 0.968300 -0.228700
vn -0.033900 0.998900 0.030900
vn 0.015800 0.996500 0.081900
usemtl Stem.001
s 1
f 71//1 72//1 73//1
f 74//2 75//2 76//2
f 77//3 72//3 78//3
f 74//4 73//4 79//4
f 76//5 80//5 77//5
f 72//6 81//6 73//6
f 79//7 82//7 75//7
f 72//8 83//8 84//8
f 73//9 85//9 79//9
f 80//10 82//10 83//10
f 83//11 86//11 84//12
f 81//13 87//14 85//15
f 83//16 88//17 89//17
f 84//18 90//19 81//18
f 82//20 87//21 88//21
f 74//22 76//23 78//24
f 88//25 19//26 89//27
f 90//28 13//29 1//30
f 87//31 26//32 88//33
f 86//34 19//35 13//36
f 87//37 1//37 3//38
f 78//39 72//39 71//39
f 79//40 75//40 74//40
f 80//41 72//41 77//41
f 71//42 73//42 74//42
f 75//43 80//43 76//43
f 84//44 81//44 72//44
f 85//45 82//45 79//45
f 80//46 83//46 72//46
f 81//47 85//47 73//47
f 75//48 82//48 80//48
f 89//11 86//11 83//11
f 90//49 87//14 81//13
f 82//16 88//17 83//16
f 86//50 90//19 84//18
f 85//20 87//21 82//20
f 77//51 78//24 76//23
f 74//22 78//24 71//52
f 26//53 19//26 88//25
f 86//54 13//29 90//28
f 3//55 26//32 87//31
f 89//56 19//35 86//34
f 90//57 1//37 87//37
usemtl petal_yellow
f 1//58 2//59 3//60
f 2//61 4//61 5//61
f 5//62 6//63 7//64
f 1//65 8//66 9//67
f 9//68 10//68 11//68
f 10//69 12//69 11//69
f 13//70 14//70 15//70
f 15//71 16//71 17//71
f 16//72 18//72 17//72
f 19//73 20//74 21//75
f 21//76 22//76 23//76
f 23//77 24//78 25//79
f 26//80 27//81 28//80
f 28//82 29//82 30//82
f 30//83 31//83 32//83
f 12//84 33//85 11//86
f 11//87 34//87 9//87
f 9//88 35//89 1//90
f 17//91 36//91 37//91
f 10//92 38//92 39//92
f 15//93 40//93 13//93
f 10//94 41//95 42//96
f 17//97 43//97 15//97
f 8//98 40//99 38//100
f 21//101 44//101 45//101
f 19//102 46//102 14//102
f 23//103 47//104 44//105
f 14//106 48//106 16//106
f 19//107 45//108 49//107
f 50//109 48//110 51//111
f 30//112 52//112 28//112
f 26//113 53//114 20//114
f 30//115 54//116 55//115
f 20//117 56//117 22//117
f 28//118 57//118 26//118
f 24//119 56//119 58//120
f 7//121 59//122 5//123
f 27//124 60//124 61//124
f 2//125 60//126 3//126
f 29//127 61//127 62//127
f 5//128 63//128 2//128
f 31//129 62//130 64//131
f 6//132 65//133 66//134
f 4//135 67//135 65//135
f 12//136 41//136 68//136
f 39//137 68//137 41//137
f 34//138 39//138 38//138
f 35//139 38//139 40//139
f 69//140 35//140 67//140
f 6//141 70//141 7//141
f 59//142 66//142 65//142
f 63//143 65//143 67//143
f 63//144 35//144 60//144
f 31//145 54//145 32//145
f 55//146 64//146 62//146
f 52//147 62//147 61//147
f 57//148 61//148 60//148
f 25//149 58//149 47//149
f 44//150 58//150 56//150
f 45//151 56//151 53//151
f 49//152 53//152 57//152
f 18//153 51//153 36//153
f 48//154 36//154 51//154
f 43//155 48//155 46//155
f 40//156 46//156 49//156
f 40//157 49//157 35//157
f 60//158 35//159 57//160
f 49//161 57//160 35//159
f 69//162 2//59 1//58
f 69//163 4//163 2//163
f 4//164 6//63 5//62
f 13//165 8//66 1//65
f 8//166 10//166 9//166
f 42//167 12//167 10//167
f 19//168 14//168 13//168
f 14//169 16//169 15//169
f 50//170 18//170 16//170
f 26//171 20//74 19//73
f 20//172 22//172 21//172
f 22//78 24//78 23//77
f 3//81 27//81 26//80
f 27//173 29//173 28//173
f 29//83 31//83 30//83
f 68//174 33//85 12//84
f 33//175 34//175 11//175
f 34//176 35//89 9//88
f 18//177 36//177 17//177
f 8//178 38//178 10//178
f 43//179 40//179 15//179
f 39//180 41//95 10//94
f 37//181 43//181 17//181
f 13//182 40//99 8//98
f 23//183 44//183 21//183
f 49//184 46//184 19//184
f 25//104 47//104 23//103
f 46//185 48//185 14//185
f 21//186 45//108 19//107
f 16//187 48//110 50//109
f 55//188 52//188 30//188
f 57//113 53//114 26//113
f 32//189 54//116 30//115
f 53//190 56//190 20//190
f 52//118 57//118 28//118
f 22//119 56//119 24//119
f 70//191 59//122 7//121
f 3//124 60//124 27//124
f 63//192 60//126 2//125
f 27//193 61//193 29//193
f 59//194 63//194 5//194
f 29//130 62//130 31//129
f 4//195 65//133 6//132
f 69//196 67//196 4//196
f 42//197 41//197 12//197
f 33//198 68//198 39//198
f 33//199 39//199 34//199
f 34//200 38//200 35//200
f 1//201 35//201 69//201
f 66//202 70//202 6//202
f 70//203 66//203 59//203
f 59//204 65//204 63//204
f 67//205 35//205 63//205
f 64//206 54//206 31//206
f 54//207 64//207 55//207
f 55//208 62//208 52//208
f 52//209 61//209 57//209
f 24//210 58//210 25//210
f 47//211 58//211 44//211
f 44//212 56//212 45//212
f 45//213 53//213 49//213
f 50//214 51//214 18//214
f 37//215 36//215 48//215
f 37//216 48//216 43//216
f 43//217 46//217 40//217
o energy_remain_Icosphere.002
v -0.161532 -0.037030 0.206562
v -0.119742 0.042262 0.328579
v -0.264355 0.042903 0.283761
v -0.032430 0.042038 0.204889
v -0.266421 0.043075 0.132376
v -0.123084 0.042541 0.083631
v -0.055463 0.170845 0.281059
v -0.198800 0.171379 0.329804
v -0.289455 0.171882 0.208545
v -0.202142 0.171658 0.084855
v -0.057529 0.171017 0.129674
v -0.160352 0.250950 0.206873
vn -0.183000 -0.794500 0.579000
vn 0.492700 -0.797100 0.349200
vn -0.610200 -0.792200 0.007400
vn -0.198700 -0.793200 -0.575600
vn 0.482900 -0.796300 -0.364400
vn 0.801700 -0.191500 0.566200
vn -0.291500 -0.187400 0.938000
vn -0.982900 -0.183600 0.013200
vn -0.317000 -0.185300 -0.930100
vn 0.785900 -0.190200 -0.588400
vn 0.317000 0.185300 0.930100
vn -0.785900 0.190200 0.588400
vn -0.801700 0.191500 -0.566200
vn 0.291500 0.187400 -0.938000
vn 0.982900 0.183600 -0.013200
vn 0.198700 0.793200 0.575600
vn -0.482900 0.796300 0.364400
vn -0.492700 0.797100 -0.349200
vn 0.183000 0.794500 -0.579000
vn 0.610200 0.792200 -0.007400
usemtl Material.001
s 1
f 91//218 92//218 93//218
f 92//219 91//219 94//219
f 91//220 93//220 95//220
f 91//221 95//221 96//221
f 91//222 96//222 94//222
f 92//223 94//223 97//223
f 93//224 92//224 98//224
f 95//225 93//225 99//225
f 96//226 95//226 100//226
f 94//227 96//227 101//227
f 92//228 97//228 98//228
f 93//229 98//229 99//229
f 95//230 99//230 100//230
f 96//231 100//231 101//231
f 94//232 101//232 97//232
f 98//233 97//233 102//233
f 99//234 98//234 102//234
f 100//235 99//235 102//235
f 101//236 100//236 102//236
f 97//237 101//237 102//237
o energy_remain_Icosphere.001
v 0.238210 -0.018234 0.008997
v 0.361020 0.061615 0.047257
v 0.239687 0.061301 0.137813
v 0.312387 0.061576 -0.096122
v 0.116068 0.061068 0.050404
v 0.161000 0.061238 -0.094174
v 0.359711 0.190445 -0.032272
v 0.314779 0.190275 0.112307
v 0.163392 0.189937 0.114255
v 0.114759 0.189897 -0.029124
v 0.236092 0.190211 -0.119680
v 0.237569 0.269747 0.009136
vn 0.364900 -0.794100 0.486100
vn 0.576700 -0.793300 -0.195400
vn -0.348700 -0.795700 0.495300
vn -0.577900 -0.795900 -0.180500
vn -0.006000 -0.794400 -0.607400
vn 0.930600 -0.185400 -0.315600
vn 0.587900 -0.186600 0.787100
vn -0.566700 -0.189200 0.801900
vn -0.937600 -0.189500 -0.291600
vn -0.012200 -0.187100 -0.982300
vn 0.937600 0.189500 0.291600
vn 0.012200 0.187100 0.982300
vn -0.930600 0.185400 0.315600
vn -0.587900 0.186700 -0.787100
vn 0.566700 0.189200 -0.801900
vn 0.577900 0.795900 0.180500
vn 0.006000 0.794400 0.607400
vn -0.576700 0.793300 0.195400
vn -0.364900 0.794100 -0.486100
vn 0.348700 0.795700 -0.495300
usemtl Material.001
s 1
f 103//238 104//238 105//238
f 104//239 103//239 106//239
f 103//240 105//240 107//240
f 103//241 107//241 108//241
f 103//242 108//242 106//242
f 104//243 106//243 109//243
f 105//244 104//244 110//244
f 107//245 105//245 111//245
f 108//246 107//246 112//246
f 106//247 108//247 113//247
f 104//248 109//248 110//248
f 105//249 110//249 111//249
f 107//250 111//250 112//250
f 108//251 112//251 113//251
f 106//252 113//252 109//252
f 110//253 109//253 114//253
f 111//254 110//254 114//254
f 112//255 111//255 114//255
f 113//256 112//256 114//256
f 109//257 113//257 114//257
o energy_remain_Icosphere
v -0.136478 -0.023675 -0.217114
v -0.008637 0.056348 -0.203884
v -0.109662 0.055872 -0.091119
v -0.084668 0.056231 -0.334811
v -0.248126 0.055460 -0.152349
v -0.232679 0.055682 -0.302959
v -0.025828 0.185170 -0.281556
v -0.041275 0.184948 -0.130946
v -0.189286 0.184399 -0.099094
v -0.265317 0.184282 -0.230022
v -0.164292 0.184758 -0.342787
v -0.137476 0.264305 -0.216792
vn 0.454900 -0.793500 0.404200
vn 0.527700 -0.792500 -0.305700
vn -0.242800 -0.796100 0.554300
vn -0.601100 -0.796700 -0.062800
vn -0.125000 -0.794400 -0.594400
vn 0.850100 -0.184100 -0.493500
vn 0.732200 -0.185800 0.655200
vn -0.396600 -0.190000 0.898100
vn -0.976500 -0.190900 -0.100400
vn -0.206000 -0.187200 -0.960500
vn 0.976500 0.190900 0.100400
vn 0.206000 0.187200 0.960500
vn -0.850100 0.184100 0.493500
vn -0.732200 0.185800 -0.655200
vn 0.396600 0.190000 -0.898100
vn 0.601100 0.796700 0.062800
vn 0.125000 0.794400 0.594400
vn -0.527700 0.792500 0.305700
vn -0.454900 0.793500 -0.404200
vn 0.242800 0.796100 -0.554300
usemtl Material.001
s 1
f 115//258 116//258 117//258
f 116//259 115//259 118//259
f 115//260 117//260 119//260
f 115//261 119//261 120//261
f 115//262 120//262 118//262
f 116//263 118//263 121//263
f 117//264 116//264 122//264
f 119//265 117//265 123//265
f 120//266 119//266 124//266
f 118//267 120//267 125//267
f 116//268 121//268 122//268
f 117//269 122//269 123//269
f 119//270 123//270 124//270
f 120//271 124//271 125//271
f 118//272 125//272 121//272
f 122//273 121//273 126//273
f 123//274 122//274 126//274
f 124//275 123//275 126//275
f 125//276 124//276 126//276
f 121//277 125//277 126//277
