# Blender v2.76 (sub 0) OBJ File: ''
# www.blender.org
mtllib tree1.mtl
o tree.006_Circle.007
v -0.299545 5.208816 0.387533
v 0.752875 4.556627 -0.403659
v 1.110935 5.549644 0.618407
v 0.092893 6.608958 0.598604
v -0.894345 6.270602 -0.435718
v -0.486445 5.002199 -1.055138
v 1.795757 5.553694 -0.681572
v 1.387857 6.822097 -0.062152
v 0.148536 7.267669 -0.713631
v -0.209524 6.274651 -1.735697
v 0.808518 5.215338 -1.715894
v 1.200956 6.615480 -1.504823
v -3.147614 4.942046 -0.515150
v -1.377748 4.228417 -1.197981
v -1.849943 4.056729 0.765556
v -2.834878 5.738390 1.322251
v -2.971387 6.949386 -0.297270
v -2.070832 6.016162 -1.854838
v 0.028838 4.583708 0.217414
v -0.871716 5.516931 1.774982
v -1.564801 7.304676 1.118125
v -1.092606 7.476365 -0.845412
v -0.107670 5.794703 -1.402108
v 0.205065 6.591048 0.435294
v -0.196684 2.222413 0.213479
v -1.897350 5.328848 -0.253805
v -1.247925 5.678052 -0.310226
v -1.575911 5.407238 -0.915176
v 0.542831 2.222413 0.213479
v 1.236537 4.023992 -0.274093
v 0.893908 4.158786 0.367246
v 1.545010 3.808183 0.362422
v 0.173074 -0.000000 -1.000000
v -0.692952 0.000000 0.500000
v 1.039099 0.000000 0.500000
v 0.173074 2.222413 -0.426959
v 1.024045 4.015630 -0.772274
v 2.003619 3.485652 0.327448
v 0.480599 3.649276 0.649091
v -0.031101 4.938548 -0.076028
v 1.175703 5.571721 -0.845817
v 2.433213 4.673779 -0.596448
v 1.553883 4.081023 1.703373
v 0.296373 4.978965 1.454004
v 0.725967 6.167091 0.530107
v 2.248987 6.003468 0.208465
v 2.760687 4.714195 0.933584
v 1.705541 5.637114 1.629830
vn -0.478300 0.868600 -0.129500
vn 0.473400 0.878200 0.068300
vn 0.000000 -1.000000 0.000000
vn 0.767500 -0.425300 -0.479600
vn 0.858900 0.127900 -0.495900
vn -0.761000 -0.483000 -0.433100
vn 0.786600 0.340900 -0.514800
vn 0.002300 0.150500 0.988600
vn -0.015800 -0.076300 0.997000
vn -0.749500 0.470200 -0.466000
vn 0.000000 0.127900 0.991800
vn -0.858900 0.127900 -0.495900
vn 0.063700 -0.726800 0.683900
vn -0.415800 -0.891200 0.181500
vn -0.134400 -0.110800 0.984700
vn -0.736400 0.105600 0.668300
vn -0.910300 -0.376700 0.171900
vn -0.083200 -0.889200 -0.449900
vn 0.692600 -0.623300 0.362900
vn 0.372100 0.373500 0.849700
vn -0.601900 0.723700 0.337700
vn -0.883200 -0.056700 -0.465500
vn 0.601900 -0.723700 -0.337700
vn 0.883200 0.056700 0.465500
vn 0.083200 0.889200 0.449900
vn -0.692600 0.623300 -0.362900
vn -0.372100 -0.373500 -0.849700
vn 0.736400 -0.105600 -0.668300
vn 0.910300 0.376700 -0.171900
vn 0.415800 0.891200 -0.181500
vn -0.063700 0.726800 -0.683900
vn 0.134400 0.110800 -0.984700
vn -0.426800 -0.886200 -0.180100
vn -0.474900 -0.459800 -0.750400
vn -0.743900 -0.557600 0.368300
vn -0.988000 0.071900 0.137000
vn -0.821700 0.132300 -0.554400
vn 0.186600 -0.274300 -0.943400
vn 0.264400 -0.964200 -0.020700
vn -0.248700 -0.432500 0.866700
vn -0.643500 0.586000 0.492400
vn -0.374500 0.683800 -0.626200
vn 0.643500 -0.586000 -0.492400
vn 0.374500 -0.683800 0.626200
vn -0.186600 0.274300 0.943400
vn -0.264400 0.964200 0.020700
vn 0.248700 0.432500 -0.866700
vn 0.988000 -0.071900 -0.137000
vn 0.821700 -0.132300 0.554400
vn 0.474900 0.459800 0.750400
vn 0.426800 0.886200 0.180100
vn 0.743900 0.557600 -0.368300
vn -0.165200 -0.938000 -0.304900
vn 0.385100 -0.649300 -0.655900
vn -0.738500 -0.528500 -0.418600
vn -0.542600 0.013200 -0.839900
vn 0.151800 -0.061400 -0.986500
vn 0.874400 -0.452400 -0.175200
vn -0.015900 -0.919500 0.392700
vn -0.943600 -0.257100 0.208700
vn -0.626600 0.619500 -0.472900
vn 0.497000 0.498700 -0.710100
vn 0.626600 -0.619500 0.472900
vn -0.497000 -0.498700 0.710100
vn -0.874400 0.452400 0.175200
vn 0.015900 0.919500 -0.392700
vn 0.943600 0.257100 -0.208700
vn 0.542600 -0.013200 0.839900
vn -0.151800 0.061400 0.986500
vn -0.385100 0.649300 0.655900
vn 0.165200 0.938000 0.304900
vn 0.738500 0.528500 0.418600
usemtl bark.002
s 1
f 27//1 28//1 26//1
f 31//2 32//2 30//2
f 34//3 33//3 35//3
f 29//4 36//4 30//4 32//4
f 35//5 33//5 36//5 29//5
f 36//6 25//6 26//6 28//6
f 29//7 36//7 28//7 27//7
f 25//8 29//8 27//8 26//8
f 25//9 29//9 32//9 31//9
f 36//10 25//10 31//10 30//10
f 34//11 35//11 29//11 25//11
f 33//12 34//12 25//12 36//12
usemtl laeves.002
f 1//13 2//13 3//13
f 2//14 1//14 6//14
f 1//15 3//15 4//15
f 1//16 4//16 5//16
f 1//17 5//17 6//17
f 2//18 6//18 11//18
f 3//19 2//19 7//19
f 4//20 3//20 8//20
f 5//21 4//21 9//21
f 6//22 5//22 10//22
f 2//23 11//23 7//23
f 3//24 7//24 8//24
f 4//25 8//25 9//25
f 5//26 9//26 10//26
f 6//27 10//27 11//27
f 7//28 11//28 12//28
f 8//29 7//29 12//29
f 9//30 8//30 12//30
f 10//31 9//31 12//31
f 11//32 10//32 12//32
f 13//33 14//33 15//33
f 14//34 13//34 18//34
f 13//35 15//35 16//35
f 13//36 16//36 17//36
f 13//37 17//37 18//37
f 14//38 18//38 23//38
f 15//39 14//39 19//39
f 16//40 15//40 20//40
f 17//41 16//41 21//41
f 18//42 17//42 22//42
f 14//43 23//43 19//43
f 15//44 19//44 20//44
f 16//45 20//45 21//45
f 17//46 21//46 22//46
f 18//47 22//47 23//47
f 19//48 23//48 24//48
f 20//49 19//49 24//49
f 21//50 20//50 24//50
f 22//51 21//51 24//51
f 23//52 22//52 24//52
f 37//53 38//53 39//53
f 38//54 37//54 42//54
f 37//55 39//55 40//55
f 37//56 40//56 41//56
f 37//57 41//57 42//57
f 38//58 42//58 47//58
f 39//59 38//59 43//59
f 40//60 39//60 44//60
f 41//61 40//61 45//61
f 42//62 41//62 46//62
f 38//63 47//63 43//63
f 39//64 43//64 44//64
f 40//65 44//65 45//65
f 41//66 45//66 46//66
f 42//67 46//67 47//67
f 43//68 47//68 48//68
f 44//69 43//69 48//69
f 45//70 44//70 48//70
f 46//71 45//71 48//71
f 47//72 46//72 48//72
