# Blender v2.76 (sub 0) OBJ File: ''
# www.blender.org
mtllib grab_flower.mtl
o Cube.001
v -0.082774 0.566243 -0.050988
v -0.086419 0.562117 -0.164840
v -0.041554 0.562754 -0.114099
v -0.216657 0.581765 -0.091228
v -0.127490 0.577903 -0.233587
v -0.233520 0.594786 -0.138484
v -0.175097 0.593785 -0.231770
v -0.061573 0.568661 0.059166
v -0.141099 0.563025 -0.038823
v -0.120860 0.581034 0.114574
v -0.213648 0.577379 0.000917
v -0.228760 0.587667 0.040557
v -0.035303 0.569860 0.007504
v 0.051189 0.567047 0.036119
v -0.035167 0.566580 0.062241
v 0.090330 0.576210 0.074533
v -0.047854 0.566363 0.111634
v -0.008973 0.574816 0.141763
v 0.035255 0.568613 -0.019458
v 0.083213 0.564595 -0.104411
v 0.088421 0.570804 -0.003108
v 0.142678 0.579313 -0.130674
v 0.148513 0.581891 0.021284
v 0.181215 0.586445 -0.107235
v 0.185336 0.588249 0.000094
v 0.031391 0.564562 -0.094614
v -0.040662 0.562657 -0.162921
v 0.066592 0.565318 -0.134270
v -0.035388 0.579433 -0.232076
v 0.109077 0.573353 -0.198595
v -0.010499 0.587107 -0.264937
v 0.103687 0.582301 -0.238473
v -0.211793 0.586764 -0.005378
v -0.148367 0.573825 -0.038747
v -0.090042 0.578613 -0.050913
v -0.013434 0.583476 0.131855
v -0.051402 0.572885 0.103768
v -0.062503 0.577787 0.059190
v -0.115509 0.587678 0.110272
v -0.036233 0.579082 0.007528
v -0.157492 0.599450 0.126788
v -0.162846 0.593367 0.131089
v -0.036297 0.574736 0.060429
v 0.143950 0.590250 0.022239
v 0.086768 0.579691 -0.003080
v 0.049359 0.575516 0.034448
v 0.180774 0.596609 0.001050
v 0.086451 0.578679 0.067469
v 0.033602 0.577379 -0.019431
v 0.085955 0.590830 0.116074
v 0.082075 0.593749 0.109012
v 0.066325 0.573331 -0.134254
v 0.082946 0.572609 -0.104396
v 0.103667 0.589912 -0.234842
v 0.109056 0.580965 -0.194963
v 0.139753 0.587047 -0.129812
v 0.031124 0.572576 -0.094598
v 0.178291 0.594179 -0.106373
v -0.120699 0.584012 -0.229023
v -0.042591 0.572736 -0.115273
v -0.041699 0.572640 -0.164094
v -0.036150 0.589179 -0.228660
v -0.087456 0.570969 -0.166012
v -0.011259 0.596852 -0.261521
v -0.208460 0.588199 -0.087099
v -0.225320 0.602252 -0.134355
v -0.149031 0.576032 -0.069949
v -0.226903 0.598417 0.034260
v -0.149436 0.567101 -0.068351
v -0.168305 0.600412 -0.227206
v -0.024588 0.000333 -0.044969
v 0.001375 0.199628 -0.033120
v -0.008827 0.199523 -0.063700
v 0.039285 0.000713 -0.045093
v 0.043099 0.200163 -0.063312
v 0.060218 0.000848 0.016421
v 0.007753 0.000504 0.054668
v -0.044609 0.000189 0.016724
v 0.017306 0.199860 -0.082381
v 0.033444 0.200043 -0.032887
v -0.056080 0.388647 -0.043408
v -0.007557 0.387932 -0.061949
v -0.005896 0.389890 -0.030007
v -0.035885 0.390331 -0.018548
v -0.038616 0.387168 -0.070230
v -0.021886 0.555313 -0.020765
v -0.024543 0.552146 -0.072449
v 0.006462 0.552911 -0.064166
v 0.008108 0.554869 -0.032223
v -0.042065 0.553633 -0.045627
vn -0.024200 -0.999000 0.037000
vn -0.025300 -0.999000 0.037000
vn -0.027800 -0.998900 0.037100
vn -0.204300 -0.973600 -0.101500
vn -0.309400 -0.933900 -0.179200
vn -0.294200 -0.942100 -0.160800
vn -0.317200 -0.929400 -0.188700
vn 0.059000 -0.998200 0.010600
vn 0.061300 -0.998100 0.010100
vn 0.057300 -0.998300 0.010900
vn -0.122500 -0.983700 0.131700
vn -0.183400 -0.966300 0.180800
vn -0.012700 -0.998100 -0.059800
vn 0.075100 -0.997100 0.014900
vn 0.107200 -0.984600 0.137900
vn 0.019200 -0.998100 0.058000
vn 0.015400 -0.998300 0.055900
vn 0.022700 -0.997900 0.060000
vn 0.177500 -0.984100 0.009900
vn 0.175800 -0.984400 0.009800
vn 0.176100 -0.984300 0.009900
vn 0.175600 -0.984400 0.009800
vn 0.024100 -0.999700 0.002400
vn 0.024200 -0.999700 0.002400
vn -0.011300 -0.991300 -0.131300
vn 0.010000 -0.975400 -0.220200
vn -0.937500 -0.041400 -0.345500
vn -0.937400 -0.045100 -0.345400
vn -0.937300 -0.046300 -0.345300
vn -0.502800 -0.332800 -0.797800
vn -0.193400 -0.121600 -0.973600
vn -0.196700 -0.111300 -0.974100
vn -0.197100 -0.109900 -0.974200
vn -0.608200 0.454300 0.650900
vn 0.683700 -0.081200 0.725200
vn -0.995000 -0.100300 -0.003500
vn 0.412900 0.238400 0.879000
vn 0.416800 0.249300 0.874200
vn 0.417200 0.250500 0.873600
vn -0.951400 -0.186300 -0.245200
vn 0.886900 0.089100 0.453200
vn 0.887100 0.088400 0.453100
vn 0.886900 0.089200 0.453200
vn -0.392000 -0.075700 0.916900
vn 0.951100 0.152700 -0.268400
vn 0.471800 0.158400 0.867400
vn 0.471800 0.158300 0.867400
vn 0.471700 0.158400 0.867400
vn 0.655900 -0.524000 -0.543300
vn -0.291200 -0.057800 0.954900
vn -0.291300 -0.057200 0.954900
vn -0.291200 -0.057900 0.954900
vn 0.750900 0.642500 -0.152900
vn 0.727000 0.667900 -0.159500
vn 0.755600 0.637200 -0.151600
vn 0.832600 0.026700 0.553200
vn -0.185800 -0.004300 -0.982600
vn 0.990900 0.060100 -0.120400
vn -0.393900 -0.046600 -0.918000
vn 0.747400 0.023600 0.663900
vn 0.463500 0.269400 -0.844100
vn 0.463600 0.269400 -0.844100
vn 0.129000 0.473300 -0.871400
vn 0.131700 0.490900 -0.861200
vn 0.132200 0.494700 -0.859000
vn -0.994300 -0.105400 -0.018000
vn 0.749100 0.000100 -0.662400
vn 0.749100 -0.000000 -0.662400
vn -0.994400 -0.043800 -0.096700
vn 0.861400 0.033800 -0.506800
vn -0.804800 0.139400 -0.577000
vn -0.712200 0.562800 0.419500
vn -0.688100 0.597300 0.412100
vn -0.717400 0.555100 0.421000
vn -0.309500 -0.201900 0.929200
vn -0.721200 0.438600 0.536100
vn 0.205600 0.964600 -0.165000
vn 0.079300 0.990800 -0.109600
vn -0.023200 0.999600 0.013300
vn -0.309200 0.181000 0.933600
vn -0.529700 0.777000 -0.340100
vn 0.313400 0.935000 0.166200
vn 0.182100 0.981100 0.065000
vn 0.034700 0.997300 -0.065400
vn 0.221600 0.420400 -0.879900
vn 0.002000 0.973500 0.228800
vn -0.072900 0.967600 0.241600
vn 0.002700 1.000000 -0.001900
vn 0.875900 0.481500 -0.031100
vn -0.172600 0.984900 -0.016000
vn -0.269800 0.961200 -0.057000
vn -0.012600 0.997900 -0.063400
vn 0.070200 0.766500 0.638400
vn -0.183000 0.917800 -0.352200
vn -0.028400 0.997600 -0.063600
vn 0.033900 0.999100 0.024600
vn 0.015700 0.999600 -0.022500
vn 0.023000 0.997000 -0.074100
vn 0.024700 0.997300 -0.069300
vn 0.025100 0.997400 -0.068100
vn 0.026400 0.997600 -0.064600
vn -0.022500 -0.999100 0.036900
vn -0.188900 -0.979300 -0.072800
vn -0.290600 -0.944000 -0.156400
vn 0.064300 -0.997900 0.009500
vn -0.087000 -0.988000 0.127500
vn -0.200300 -0.957800 0.206100
vn -0.025600 -0.999500 -0.020800
vn 0.058300 -0.982800 0.175100
vn 0.246100 -0.905900 0.344700
vn 0.010700 -0.998500 0.053300
vn 0.259000 -0.964800 0.045800
vn 0.085200 -0.969800 -0.228800
vn -0.937500 -0.040400 -0.345500
vn -0.488300 -0.417400 -0.766300
vn -0.193000 -0.123000 -0.973500
vn -0.607500 0.442200 0.659900
vn 0.688800 0.068300 0.721700
vn -0.990100 -0.140000 -0.012700
vn 0.412500 0.237200 0.879500
vn -0.676100 -0.687500 -0.265000
vn 0.887100 0.088300 0.453100
vn -0.317100 -0.276700 0.907100
vn 0.945900 0.179200 -0.270400
vn 0.665100 -0.003500 -0.746700
vn -0.291300 -0.057100 0.954900
vn 0.721600 0.673400 -0.161000
vn 0.805800 -0.253300 0.535300
vn -0.405900 -0.011800 -0.913900
vn 0.128500 0.469700 -0.873400
vn -0.988000 -0.114800 -0.103200
vn 0.741900 -0.461000 -0.486800
vn -0.681900 0.605600 0.410200
vn -0.281200 0.181300 0.942400
vn -0.559200 0.746700 0.360100
vn 0.225000 0.954700 -0.194900
vn 0.136600 0.983100 -0.121500
vn -0.076300 0.996700 0.026600
vn -0.250900 -0.153200 0.955800
vn -0.532500 0.774100 -0.342300
vn 0.326500 0.927500 0.182100
vn 0.201200 0.974900 0.095700
vn -0.022100 0.997500 -0.066700
vn 0.232100 0.337800 -0.912100
vn 0.008400 0.976000 0.217800
vn 0.023300 0.989800 0.140900
vn -0.009400 0.999900 0.010700
vn 0.933000 0.357500 -0.041800
vn -0.180200 0.983500 -0.018100
vn -0.174700 0.984500 -0.015900
vn -0.022200 0.997400 -0.068900
vn -0.045200 0.914200 0.402800
vn -0.100900 0.968300 -0.228700
vn -0.033900 0.999000 0.030900
vn 0.015800 0.996500 0.081900
vn -0.943600 0.104200 0.314400
vn 0.945700 -0.047500 -0.321700
vn -0.557200 0.320000 0.766200
vn -0.566600 -0.211600 -0.796400
vn 0.566200 0.269000 0.779100
vn -0.915300 -0.261600 0.306200
vn 0.585200 0.163700 -0.794200
vn 0.356900 -0.001600 0.934100
vn -0.576300 -0.119600 -0.808400
vn 0.977000 0.203400 -0.063300
vn 0.356700 -0.017700 0.934100
vn 0.356600 -0.017700 0.934100
vn -0.834600 0.063800 -0.547200
vn -0.834000 0.063500 -0.548100
vn -0.834700 0.063800 -0.547000
vn 0.995300 -0.085200 -0.046500
vn 0.995300 -0.085100 -0.046100
vn -0.776500 0.074400 0.625700
vn -0.776700 0.074300 0.625400
vn 0.258300 -0.035000 -0.965400
vn 0.258700 -0.035000 -0.965300
vn 0.258800 -0.035000 -0.965300
vn 0.006200 -1.000000 -0.000100
vn 0.006300 -1.000000 -0.000100
vn 0.006200 -1.000000 -0.000200
vn 0.446100 -0.894600 0.026900
vn 0.443900 -0.895600 0.028700
vn 0.439300 -0.897800 0.032400
vn -0.316700 -0.895200 0.313700
vn -0.315200 -0.895700 0.313700
vn -0.318400 -0.894500 0.313700
vn 0.099400 -0.953800 -0.283600
vn 0.099300 -0.953800 -0.283600
vn 0.099300 -0.953800 -0.283700
vn 0.182900 -0.836700 0.516200
vn 0.183100 -0.837400 0.514900
vn 0.182800 -0.836200 0.517100
vn -0.277900 -0.951900 -0.128900
vn -0.941800 0.140800 -0.305300
vn 0.593000 -0.084500 -0.800700
vn -0.011900 0.403100 0.915100
vn -0.001400 -0.093500 -0.995600
vn 0.933800 0.199100 0.297200
vn -0.754700 -0.195300 0.626300
vn 0.252000 0.137400 -0.957900
vn -0.007000 -0.016600 0.999800
vn -0.832200 -0.150700 -0.533600
vn 0.923300 0.247000 0.294000
vn -0.833900 0.063500 -0.548300
vn -0.776800 0.074300 0.625400
vn 0.006300 -1.000000 -0.000400
vn 0.005900 -1.000000 -0.000400
vn 0.448300 -0.893500 0.025100
vn -0.311700 -0.896900 0.313600
vn 0.099400 -0.953800 -0.283500
vn 0.183500 -0.838700 0.512800
vn -0.277900 -0.951900 -0.128800
usemtl petal_yellow
s 1
f 1//1 2//2 3//3
f 2//4 4//4 5//4
f 5//5 6//6 7//7
f 1//8 8//9 9//10
f 9//11 10//11 11//11
f 10//12 12//12 11//12
f 13//13 14//13 15//13
f 15//14 16//14 17//14
f 16//15 18//15 17//15
f 19//16 20//17 21//18
f 21//19 22//19 23//19
f 23//20 24//21 25//22
f 26//23 27//23 28//24
f 28//25 29//25 30//25
f 30//26 31//26 32//26
f 12//27 33//28 11//29
f 11//30 34//30 9//30
f 9//31 35//32 1//33
f 17//34 36//34 37//34
f 10//35 38//35 39//35
f 15//36 40//36 13//36
f 10//37 41//38 42//39
f 17//40 43//40 15//40
f 8//41 40//42 38//43
f 21//44 44//44 45//44
f 19//45 46//45 14//45
f 23//46 47//47 44//48
f 14//49 48//49 16//49
f 19//50 45//51 49//52
f 50//53 48//54 51//55
f 30//56 52//56 28//56
f 26//57 53//57 20//57
f 30//58 54//58 55//58
f 20//59 56//59 22//59
f 28//60 57//60 26//60
f 24//61 56//62 58//61
f 7//63 59//64 5//65
f 27//66 60//66 61//66
f 2//67 60//68 3//68
f 29//69 61//69 62//69
f 5//70 63//70 2//70
f 31//71 62//71 64//71
f 6//72 65//73 66//74
f 4//75 67//75 65//75
f 12//76 41//76 68//76
f 39//77 68//77 41//77
f 34//78 39//78 38//78
f 35//79 38//79 40//79
f 69//80 35//80 67//80
f 6//81 70//81 7//81
f 59//82 66//82 65//82
f 63//83 65//83 67//83
f 63//84 35//84 60//84
f 31//85 54//85 32//85
f 55//86 64//86 62//86
f 52//87 62//87 61//87
f 57//88 61//88 60//88
f 25//89 58//89 47//89
f 44//90 58//90 56//90
f 45//91 56//91 53//91
f 49//92 53//92 57//92
f 18//93 51//93 36//93
f 48//94 36//94 51//94
f 43//95 48//95 46//95
f 40//96 46//96 49//96
f 40//97 49//97 35//97
f 60//98 35//99 57//100
f 49//101 57//100 35//99
f 69//102 2//2 1//1
f 69//103 4//103 2//103
f 4//104 6//6 5//5
f 13//105 8//9 1//8
f 8//106 10//106 9//106
f 42//107 12//107 10//107
f 19//108 14//108 13//108
f 14//109 16//109 15//109
f 50//110 18//110 16//110
f 26//111 20//17 19//16
f 20//112 22//112 21//112
f 22//21 24//21 23//20
f 3//23 27//23 26//23
f 27//113 29//113 28//113
f 29//26 31//26 30//26
f 68//114 33//28 12//27
f 33//115 34//115 11//115
f 34//116 35//32 9//31
f 18//117 36//117 17//117
f 8//118 38//118 10//118
f 43//119 40//119 15//119
f 39//120 41//38 10//37
f 37//121 43//121 17//121
f 13//122 40//42 8//41
f 23//123 44//123 21//123
f 49//124 46//124 19//124
f 25//47 47//47 23//46
f 46//125 48//125 14//125
f 21//126 45//51 19//50
f 16//127 48//54 50//53
f 55//128 52//128 30//128
f 57//57 53//57 26//57
f 32//58 54//58 30//58
f 53//129 56//129 20//129
f 52//60 57//60 28//60
f 22//62 56//62 24//61
f 70//130 59//64 7//63
f 3//66 60//66 27//66
f 63//67 60//68 2//67
f 27//131 61//131 29//131
f 59//132 63//132 5//132
f 29//71 62//71 31//71
f 4//133 65//73 6//72
f 69//134 67//134 4//134
f 42//135 41//135 12//135
f 33//136 68//136 39//136
f 33//137 39//137 34//137
f 34//138 38//138 35//138
f 1//139 35//139 69//139
f 66//140 70//140 6//140
f 70//141 66//141 59//141
f 59//142 65//142 63//142
f 67//143 35//143 63//143
f 64//144 54//144 31//144
f 54//145 64//145 55//145
f 55//146 62//146 52//146
f 52//147 61//147 57//147
f 24//148 58//148 25//148
f 47//149 58//149 44//149
f 44//150 56//150 45//150
f 45//151 53//151 49//151
f 50//152 51//152 18//152
f 37//153 36//153 48//153
f 37//154 48//154 43//154
f 43//155 46//155 40//155
usemtl Stem
f 71//156 72//156 73//156
f 74//157 75//157 76//157
f 77//158 72//158 78//158
f 74//159 73//159 79//159
f 76//160 80//160 77//160
f 72//161 81//161 73//161
f 79//162 82//162 75//162
f 72//163 83//163 84//163
f 73//164 85//164 79//164
f 80//165 82//165 83//165
f 83//166 86//167 84//166
f 81//168 87//169 85//170
f 83//171 88//172 89//172
f 84//173 90//174 81//173
f 82//175 87//176 88//177
f 74//178 76//179 78//180
f 88//181 19//182 89//183
f 90//184 13//185 1//186
f 87//187 26//188 88//189
f 86//190 19//191 13//192
f 87//193 1//193 3//193
f 78//194 72//194 71//194
f 79//195 75//195 74//195
f 80//196 72//196 77//196
f 71//197 73//197 74//197
f 75//198 80//198 76//198
f 84//199 81//199 72//199
f 85//200 82//200 79//200
f 80//201 83//201 72//201
f 81//202 85//202 73//202
f 75//203 82//203 80//203
f 89//167 86//167 83//166
f 90//204 87//169 81//168
f 82//171 88//172 83//171
f 86//205 90//174 84//173
f 85//175 87//176 82//175
f 77//206 78//180 76//179
f 74//178 78//180 71//207
f 26//208 19//182 88//181
f 86//209 13//185 90//184
f 3//210 26//188 87//187
f 89//211 19//191 86//190
f 90//212 1//193 87//193
