# Blender v2.76 (sub 0) OBJ File: ''
# www.blender.org
mtllib spear.mtl
o Spear_Circle
v 0.000000 0.073470 -0.542523
v 0.069879 0.022703 -0.541883
v 0.066562 0.021626 1.903156
v 0.000000 0.069982 1.902547
v 0.043188 -0.059438 -0.540848
v -0.043188 -0.059438 -0.540848
v -0.041138 -0.056616 1.904142
v 0.041138 -0.056616 1.904142
v -0.069879 0.022703 -0.541883
v -0.066562 0.021626 1.903156
v 0.000000 0.141226 -0.629497
v 0.134325 0.043641 -0.628268
v 0.083017 -0.114254 -0.626278
v -0.083017 -0.114254 -0.626278
v -0.134325 0.043641 -0.628268
v 0.000000 0.000000 -1.295277
vn -0.587800 -0.809000 -0.001200
vn 0.000000 1.000000 -0.001200
vn 0.587800 -0.809000 -0.001200
vn -0.951100 0.309000 -0.001200
vn 0.951100 0.309000 -0.001200
vn 0.000000 -0.012600 -0.999900
vn -0.493500 -0.686100 -0.534500
vn 0.000000 0.841600 -0.540000
vn 0.493500 -0.686100 -0.534500
vn -0.803700 0.254400 -0.537900
vn 0.803700 0.254400 -0.537900
vn -0.580300 -0.796700 0.169000
vn 0.000000 0.985700 0.168300
vn 0.580300 -0.796700 0.169000
vn -0.936800 0.306500 0.168600
vn 0.936800 0.306500 0.168600
usemtl spear_grip.001
s 1
f 1//1 2//1 3//1 4//1
f 5//2 6//2 7//2 8//2
f 9//3 1//3 4//3 10//3
f 2//4 5//4 8//4 3//4
f 6//5 9//5 10//5 7//5
f 10//6 4//6 3//6 8//6 7//6
usemtl spear_front.001
f 2//7 1//7 11//7 12//7
f 6//8 5//8 13//8 14//8
f 1//9 9//9 15//9 11//9
f 5//10 2//10 12//10 13//10
f 9//11 6//11 14//11 15//11
f 12//12 11//12 16//12
f 14//13 13//13 16//13
f 11//14 15//14 16//14
f 13//15 12//15 16//15
f 15//16 14//16 16//16
