# Blender v2.76 (sub 0) OBJ File: ''
# www.blender.org
mtllib base.mtl
o Cube.001
v -8.676530 -0.259308 7.235160
v -8.676530 -0.259308 -7.518410
v 7.536533 -0.259308 -7.518410
v 7.536533 -0.259308 7.235160
v -8.676530 -0.632456 7.235159
v 7.536533 -0.632456 7.235160
v 7.536533 -0.632456 -7.518410
v -8.676530 -0.632456 -7.518411
v -9.004117 -0.632456 -7.518411
v -9.004117 -0.632456 7.235159
v 7.536533 -0.632456 7.580946
v 7.536533 -0.259308 7.580946
v -8.676530 -0.632456 7.580945
v -8.676530 -0.259308 7.580946
v -8.676530 7.184189 7.235168
v -8.676530 7.184188 7.580955
v 7.536533 7.184189 7.235168
v 7.536533 7.184188 7.580955
v -9.004117 -0.259308 7.235160
v -9.004117 -0.259308 -7.518410
v -9.004117 7.202388 -7.518410
v -9.004117 7.202387 7.235160
v -8.676530 7.202389 -7.518410
v -8.676530 7.202388 7.235160
vn 0.000000 1.000000 0.000000
vn 0.000000 -1.000000 -0.000000
vn 0.000000 0.000000 -1.000000
vn 1.000000 0.000000 0.000000
vn -0.000000 -0.000000 1.000000
vn -1.000000 0.000000 0.000000
usemtl Material.002
s 1
f 1//1 4//1 3//1 2//1
f 5//2 8//2 7//2 6//2
f 5//2 10//2 9//2 8//2
f 2//3 3//3 7//3 8//3
f 3//4 4//4 6//4 7//4
f 4//4 12//4 11//4 6//4
f 13//5 11//5 12//5 14//5
f 6//2 11//2 13//2 5//2
f 5//6 13//6 14//6 1//6
f 14//6 16//6 15//6 1//6
f 15//1 16//1 18//1 17//1
f 4//4 17//4 18//4 12//4
f 12//5 18//5 16//5 14//5
f 1//3 15//3 17//3 4//3
f 19//6 20//6 9//6 10//6
f 19//6 22//6 21//6 20//6
f 8//3 9//3 20//3 2//3
f 1//5 19//5 10//5 5//5
f 23//1 21//1 22//1 24//1
f 20//3 21//3 23//3 2//3
f 2//4 23//4 24//4 1//4
f 1//5 24//5 22//5 19//5
